<svg width="15" height="15" viewBox="0 0 15 15" fill="none" xmlns="http://www.w3.org/2000/svg">
<path fill-rule="evenodd" clip-rule="evenodd" d="M6.71541 13.4308C9.87208 13.4308 12.4309 10.8718 12.4309 7.71548C12.4309 4.55881 9.87208 2 6.71541 2C3.55895 2 1.00003 4.55881 1.00003 7.71548C1.00003 10.8718 3.55895 13.4308 6.71541 13.4308Z" fill="#FFE900"/>
<mask id="mask0_107_2013" style="mask-type:alpha" maskUnits="userSpaceOnUse" x="11" y="5" width="3" height="5">
<path fill-rule="evenodd" clip-rule="evenodd" d="M13.9645 5.74646V9.04466H11.9902V5.74646H13.9645V5.74646Z" fill="white"/>
</mask>
<g mask="url(#mask0_107_2013)">
<path fill-rule="evenodd" clip-rule="evenodd" d="M12.1446 7.42324L12.6927 7.27339L13.118 9.04466L13.96 8.84883L13.9318 8.35489L13.6982 8.41081L13.3852 7.10718L13.9645 6.96438L13.8081 6.3128L13.2289 6.45571L13.0585 5.74646L12.4285 6.17243L12.5363 6.62181L11.9902 6.76376L12.1379 7.41687" fill="#1F201E"/>
</g>
<path fill-rule="evenodd" clip-rule="evenodd" d="M12.0492 6.82967C11.8376 6.61122 11.5307 6.46195 11.1252 6.46195C10.2587 6.46195 9.84251 7.14415 9.84251 7.72328V7.72765C9.84251 8.31104 10.2587 8.99324 11.1252 8.99324C11.9919 8.99324 12.4082 8.31104 12.4082 7.72765C12.4082 7.48194 12.3343 7.21923 12.1843 6.99688L12.0492 6.82967ZM11.6959 7.72765C11.6959 8.07511 11.4342 8.32819 11.1252 8.32819C10.8164 8.32819 10.5548 8.07511 10.5548 7.7318V7.72765C10.5548 7.38007 10.8164 7.12689 11.1252 7.12689C11.4342 7.12689 11.6959 7.38007 11.6959 7.72765ZM9.83041 7.72765C9.83041 7.14415 9.41407 6.46195 8.5475 6.46195C7.68094 6.46195 7.26455 7.14415 7.26455 7.72328V7.72765C7.26455 8.31104 7.68094 8.99324 8.5475 8.99324C9.41407 8.99324 9.83041 8.31104 9.83041 7.72765ZM9.11861 7.72765C9.11861 8.07511 8.8568 8.32819 8.54795 8.32819C8.23905 8.32819 7.97745 8.07511 7.97745 7.7318V7.72765C7.97745 7.38007 8.23905 7.12689 8.54795 7.12689C8.8568 7.12689 9.11861 7.38007 9.11861 7.72765ZM6.54873 7.45736H7.26944C7.14953 6.87382 6.6388 6.45758 6.00821 6.45758C5.29586 6.45758 4.75104 7.02393 4.75104 7.72328C4.75104 8.43121 5.30449 8.99755 6.02537 8.99755C6.6689 8.99755 7.14522 8.55564 7.27376 8.01503H6.54873C6.47149 8.16093 6.32985 8.33256 6.034 8.33256C5.69489 8.33256 5.4676 8.07511 5.4676 7.72765C5.4676 7.55591 5.52337 7.40144 5.62202 7.28989C5.72504 7.17851 5.86652 7.11405 6.034 7.12258C6.32985 7.12258 6.47149 7.29426 6.54873 7.45736ZM4.00865 7.20839H4.70811C4.64791 6.58212 4.10735 6.45758 3.79419 6.45758C3.30077 6.45758 2.8718 6.7708 2.8718 7.26422C2.8718 7.58596 3.12919 7.78763 3.43799 7.88628C3.89284 8.06228 4.06878 8.0838 4.06878 8.2468C4.06878 8.36265 3.94004 8.43121 3.81986 8.43121C3.78993 8.43121 3.57963 8.43121 3.54953 8.21233H2.84171C2.90605 8.83882 3.45088 9.00192 3.81129 9.00192C4.33907 9.00192 4.78092 8.69286 4.78092 8.16945C4.78092 7.65456 4.35196 7.5346 3.94867 7.42295C3.75983 7.36718 3.58389 7.29426 3.58389 7.18687C3.58389 7.12258 3.63535 7.02824 3.78561 7.02824C3.99576 7.02824 4.00438 7.15699 4.00865 7.20839Z" fill="#1F201E"/>
</svg>
