<svg width="15" height="15" viewBox="0 0 15 15" fill="none" xmlns="http://www.w3.org/2000/svg">
<path fill-rule="evenodd" clip-rule="evenodd" d="M6.35645 9.64647C6.54869 9.26166 6.54869 8.74858 6.42042 8.49205C6.29215 8.36378 3.59914 4.13154 3.59914 4.13154C3.40658 3.68275 3.47056 3.36192 3.59914 3.1057C3.85536 2.7209 4.30446 2.01526 4.30446 2.01526C4.30446 2.01526 7.57484 7.14538 7.70311 7.40192C8.08792 7.97897 7.95965 8.55634 7.70311 9.00512C7.44657 9.4539 5.3303 12.532 5.3303 12.532H4.43273C4.43273 12.532 6.22818 9.903 6.35645 9.64647Z" fill="#FF9F00"/>
<path fill-rule="evenodd" clip-rule="evenodd" d="M6.03639 9.5822C6.22863 9.26168 6.22863 8.8129 6.03639 8.55636C5.97209 8.42809 3.08652 3.87503 3.08652 3.87503C3.08652 3.87503 2.57344 4.64464 2.38088 4.90118C2.25293 5.15771 2.18864 5.41425 2.44517 5.92701C2.44517 5.92701 4.49716 9.13342 4.56145 9.32566C4.7537 9.5822 4.7537 10.0313 4.56145 10.3518C4.43318 10.6083 2.25293 13.6865 2.25293 13.6865C2.25293 13.6865 7.83183 13.6865 8.40889 13.6865C9.05023 13.6865 9.37074 13.4939 9.69157 13.0451C9.9478 12.6603 10.9739 11.1854 11.1022 10.9932C11.2945 10.7366 11.551 10.6083 11.7436 10.6083C11.8718 10.6083 12.1923 10.6083 12.1923 10.6083L11.2305 9.13342C11.2305 9.13342 10.0764 9.13342 9.75555 9.13342C9.49901 9.13342 9.11421 9.38995 8.92196 9.71047C8.79369 9.90303 7.76754 11.4419 7.5753 11.6985C7.44703 11.8907 7.25478 11.8267 7.1262 11.8267C7.19049 11.6985 8.92196 9.19771 9.24248 8.68463C9.62728 7.979 9.75555 7.08143 9.24248 6.24784C9.05023 5.92701 5.52331 0.283813 5.52331 0.283813C5.52331 0.283813 5.01024 0.989451 4.81767 1.24599C4.68972 1.50221 4.62543 1.82304 4.88197 2.27182C4.88197 2.27182 7.83183 7.01714 8.02408 7.27368C8.34491 7.78675 8.28062 8.55636 8.02408 9.00515C7.76754 9.45393 5.65158 12.5321 5.65158 12.5321C5.65158 12.5321 7.19049 12.5321 7.31876 12.5321C7.89581 12.5321 8.08837 12.3398 8.21664 12.1473C8.40889 11.955 9.30677 10.6083 9.37074 10.4801C9.49901 10.3518 9.75555 9.967 10.0764 9.967C10.2686 9.967 11.1662 9.967 11.1662 9.967C10.91 10.0313 10.7174 10.1596 10.5252 10.3518C10.3969 10.6083 9.30677 12.2116 9.1785 12.4038C8.98594 12.5964 8.79369 12.8529 8.34491 12.8529C8.08837 12.8529 3.85582 12.8529 3.85582 12.8529C3.85582 12.8529 5.90812 9.83874 6.03639 9.5822Z" fill="#FF9F00"/>
</svg>
