<svg width="30" height="30" viewBox="0 0 30 30" fill="none" xmlns="http://www.w3.org/2000/svg">
<mask id="mask0_0_6086" style="mask-type:luminance" maskUnits="userSpaceOnUse" x="4" y="6" width="24" height="19">
<path fill-rule="evenodd" clip-rule="evenodd" d="M4 5.99991H27.53V24.1836H4V5.99991Z" fill="white"/>
</mask>
<g mask="url(#mask0_0_6086)">
<path fill-rule="evenodd" clip-rule="evenodd" d="M25.8541 13.7092C25.6854 14.0975 24.4061 14.3033 22.5821 13.8226C21.8577 13.6793 21.0818 13.4146 20.361 13.0808C19.6134 12.7339 18.9414 12.3208 18.3959 11.8895C18.0156 12.0263 17.5828 12.0561 17.1021 11.7993C16.601 11.5317 16.233 11.0343 16.1901 10.4677C16.1094 9.39498 17.0541 8.51789 18.1465 8.71571C18.7327 8.82189 19.2258 9.26408 19.4083 9.83062C19.5676 10.3273 19.4803 10.7863 19.2636 11.1615C19.7065 11.4866 20.2432 11.8023 20.8279 12.0735C21.0316 12.1673 21.2279 12.251 21.4163 12.3244C21.769 12.4619 22.1443 12.1928 22.1276 11.8153L22.0621 10.3884C22.0636 10.3877 22.0636 10.3877 22.0643 10.387C23.3385 10.9259 24.4847 11.675 25.1959 12.4292C25.7668 13.035 25.937 13.5172 25.8541 13.7092ZM26.4025 11.2924C25.5494 10.3877 24.2796 9.54117 22.8272 8.90989C22.5487 8.78917 22.265 8.68008 21.9799 8.57826L21.9596 8.11571C21.8563 7.10917 21.0745 6.32735 20.0679 6.2248L15.185 6.00226C14.5421 5.97317 13.9181 6.21535 13.4628 6.66989L4.50284 15.6306C3.84684 16.2859 3.83084 17.3324 4.46575 17.9681L7.34066 20.843L10.2156 23.7179C10.8505 24.3528 11.8978 24.3368 12.553 23.6808L21.1305 15.1033C22.2919 15.5172 23.4796 15.7637 24.5145 15.7637C25.8614 15.7637 26.9479 15.3521 27.3748 14.3703C27.6018 13.8466 27.7778 12.7521 26.4025 11.2924Z" fill="#00266B"/>
</g>
</svg>
