<svg width="30" height="30" viewBox="0 0 30 30" fill="none" xmlns="http://www.w3.org/2000/svg">
<path fill-rule="evenodd" clip-rule="evenodd" d="M8 16H10V14H8V16Z" fill="#00266B"/>
<path fill-rule="evenodd" clip-rule="evenodd" d="M12 14V16H13.5H14V14H13.5H12Z" fill="#00266B"/>
<mask id="mask0_0_3784" style="mask-type:luminance" maskUnits="userSpaceOnUse" x="4" y="5" width="23" height="21">
<path fill-rule="evenodd" clip-rule="evenodd" d="M4 5.71487H26.686V25.9997H4V5.71487Z" fill="white"/>
</mask>
<g mask="url(#mask0_0_3784)">
<path fill-rule="evenodd" clip-rule="evenodd" d="M19.4277 12.9797C18.8332 12.9797 18.26 13.0655 17.7115 13.2116C16.5076 13.5345 15.4416 14.1846 14.6154 15.0631C14.2775 15.4218 13.9802 15.8165 13.7308 16.2435C13.1717 17.2007 12.8462 18.3067 12.8462 19.4888C12.8462 19.5553 12.8541 19.6184 12.8559 19.6831H12.8462V20.3131H5.90812C5.5295 20.3131 5.22785 20.0392 5.15265 19.6831C5.14204 19.6306 5.12081 19.5816 5.12081 19.5247V11.319H7.09615H13.7308H17.7115H19.6869V11.8081V12.6831V12.992C19.6002 12.9885 19.5153 12.9797 19.4277 12.9797ZM25.344 21.399L26.6868 19.0995H25.9889C25.812 16.1533 23.6491 13.7305 20.8077 13.1276V12.6831V11.8081V9.00635C20.8077 8.13747 20.1027 7.4331 19.234 7.4331H18.1538H17.6293V6.74097C17.6293 6.17485 17.194 5.71547 16.6562 5.7146H16.6553H16.6544C16.1175 5.71547 15.6831 6.17485 15.6831 6.74097V7.4331H15.5H9.30769H8.75215V6.74097C8.75215 6.17485 8.31604 5.7146 7.77908 5.7146C7.24123 5.7146 6.80512 6.17485 6.80512 6.74097V7.4331H6.65385H5.57373C4.70504 7.4331 4 8.13747 4 9.00635V9.1831V19.6831V19.8598C4 20.7287 4.70504 21.4331 5.57373 21.4331H12.8462H13.146C13.4433 22.3702 13.9546 23.2128 14.6154 23.9155C15.8176 25.1947 17.5275 25.9997 19.4277 25.9997C20.6856 25.9997 21.9073 25.6471 22.9635 24.9804C23.7313 24.4965 24.3815 23.8717 24.8902 23.1236L23.7729 22.379C23.3669 22.974 22.8512 23.471 22.239 23.8586C21.4013 24.3871 20.4273 24.668 19.4277 24.668C17.2719 24.668 15.4168 23.3712 14.6154 21.5258C14.6021 21.4952 14.5915 21.4637 14.5782 21.4331C14.4323 21.0778 14.3279 20.7025 14.2651 20.3131C14.2315 20.1075 14.2102 19.8966 14.2023 19.6831C14.1996 19.6184 14.1925 19.5553 14.1925 19.4888C14.1925 18.7661 14.3438 18.0784 14.6154 17.4518C15.193 16.1219 16.32 15.0815 17.7115 14.602C18.2503 14.4173 18.8262 14.3106 19.4277 14.3106C19.5162 14.3106 19.5993 14.3316 19.6869 14.336C20.0743 14.3544 20.4468 14.4182 20.8077 14.5162C22.8989 15.0867 24.4771 16.8927 24.6443 19.0995H24.0012L25.344 21.399Z" fill="#00266B"/>
</g>
<path fill-rule="evenodd" clip-rule="evenodd" d="M19.4982 16.1832C19.2452 16.1832 19.0391 16.3634 19.0391 16.5857V19.6071C19.0391 19.6333 19.0417 19.6604 19.0479 19.6858C19.0506 19.6981 19.0559 19.7077 19.0594 19.7191C19.0638 19.7339 19.0683 19.7471 19.0744 19.7619C19.0798 19.7751 19.0886 19.7856 19.0966 19.7987C19.1028 19.8092 19.1081 19.8206 19.116 19.8311C19.1319 19.8503 19.1496 19.8696 19.1682 19.8862C19.1709 19.8879 19.1718 19.8897 19.1735 19.8914L19.4194 20.1076L20.3713 20.9423L20.8083 21.3256L21.7938 22.1901C21.9733 22.3476 22.2644 22.3476 22.4439 22.1901C22.6226 22.0326 22.6226 21.7779 22.4439 21.6204L20.8083 20.1863L20.7782 20.1601L19.9573 19.4408V16.5857C19.9573 16.4221 19.8458 16.2838 19.6875 16.2208C19.63 16.1981 19.5663 16.1832 19.4982 16.1832Z" fill="#00266B"/>
</svg>
