<svg width="30" height="30" viewBox="0 0 30 30" fill="none" xmlns="http://www.w3.org/2000/svg">
<path fill-rule="evenodd" clip-rule="evenodd" d="M16.3671 15.3307L17.7093 16.6729C18.0187 16.9822 18.0373 17.4684 17.7529 17.7533C17.4689 18.0387 16.9827 18.0196 16.6738 17.7102L15.3302 16.3676C15.0218 16.0582 15 16.0098 14.7764 16.2596L13.3262 17.7111C13.0173 18.0196 12.5311 18.0387 12.2467 17.7533C11.9627 17.4684 11.9813 16.9822 12.2907 16.6729L13.74 15.2236C14.0484 14.9142 14.0076 15.0449 13.7 14.7356L12.2889 13.3253C11.9813 13.016 11.9618 12.5307 12.2467 12.2462C12.5329 11.9618 13.0187 11.9813 13.3262 12.2902L14.736 13.6996C15.0449 14.008 14.9773 13.9853 15.2858 13.6769L16.6733 12.2893C16.9813 11.9804 17.4671 11.9609 17.7529 12.2458C18.0382 12.5307 18.0187 13.016 17.7107 13.3253L16.3218 14.7124C16.0138 15.0222 16.0578 15.0213 16.3671 15.3307ZM15 7C10.5809 7 7 10.5818 7 15C7 19.4191 10.5809 23.0004 15 23.0004C19.4187 23.0004 23 19.4191 23 15C23 10.5818 19.4187 7 15 7Z" fill="#00266B"/>
</svg>
