<svg width="30" height="30" viewBox="0 0 30 30" fill="none" xmlns="http://www.w3.org/2000/svg">
<path fill-rule="evenodd" clip-rule="evenodd" d="M19.9569 13.9907L17.1653 16.1333L18.2644 19.6476C18.3058 19.7796 18.2684 19.8707 18.2298 19.924L18.1564 20.0253L18.0164 20.036C17.9489 20.036 17.8831 20.0178 17.8204 19.9693L15.004 17.8182L12.1804 20.0093C12.1182 20.0569 12.0529 20.1342 11.9849 20.1342H11.8609L11.7716 19.9764C11.7329 19.9236 11.6956 19.7827 11.7369 19.6507L12.8364 16.1316L10.0427 13.9907C9.91022 13.8884 9.896 13.7702 9.92756 13.6796C9.95822 13.5884 10.0511 13.5218 10.2173 13.5218H13.5964L14.728 10.1044C14.7809 9.94533 14.9031 9.86578 15 9.86578C15.096 9.86578 15.2178 9.93778 15.2711 10.0964L16.4027 13.5218H19.7818C19.9484 13.5218 20.0409 13.5884 20.072 13.6796C20.1031 13.7702 20.0898 13.8889 19.9569 13.9907ZM15 7C10.5813 7 7 10.5818 7 15C7 19.4182 10.5813 23 15 23C19.4178 23 23 19.4182 23 15C23 10.5818 19.4178 7 15 7Z" fill="#00266B"/>
</svg>
