<svg width="30" height="30" viewBox="0 0 30 30" fill="none" xmlns="http://www.w3.org/2000/svg">
<path fill-rule="evenodd" clip-rule="evenodd" d="M19.3653 14.5582C19.3013 14.7031 19.1578 14.6333 18.9991 14.6333H16.7844V19.7947C16.7844 20.0147 16.3182 20.4111 16.0978 20.4111H13.9004C13.6804 20.4111 13.2289 20.0147 13.2289 19.7947V14.6333H10.9991C10.8404 14.6333 10.6969 14.7031 10.6333 14.5582C10.5689 14.4129 10.5969 14.3196 10.7044 14.2027L14.7044 9.92133C14.78 9.83911 14.8871 9.77733 14.9991 9.77733C15.1116 9.77733 15.2182 9.79911 15.2942 9.88178L19.2942 14.2093C19.4009 14.3262 19.4293 14.4129 19.3653 14.5582ZM15.0009 7C10.5809 7 7 10.5813 7 15.0004C7 19.4182 10.5809 23 15.0009 23C19.4178 23 23 19.4182 23 15.0004C23 10.5813 19.4178 7 15.0009 7Z" fill="#00266B"/>
</svg>
