<?xml version="1.0" standalone="no"?>
<!DOCTYPE svg PUBLIC "-//W3C//DTD SVG 1.1//EN" "http://www.w3.org/Graphics/SVG/1.1/DTD/svg11.dtd" >
<svg xmlns="http://www.w3.org/2000/svg" xmlns:xlink="http://www.w3.org/1999/xlink" version="1.1">
<metadata>
Created by FontForge 20200314 at Fri Sep 24 06:22:33 1993
 By Unknown
Copyright  (c) 1990-1993 Brendel Informatik &#38; SoftMaker Software GmbH. All rights reserved.
</metadata>
<defs>
<font id="Sigvar-Regular" horiz-adv-x="577" >
  <font-face 
    font-family="Sigvar"
    font-weight="400"
    font-stretch="normal"
    units-per-em="1000"
    panose-1="0 0 0 0 0 0 0 0 0 0"
    ascent="800"
    descent="-200"
    x-height="504"
    cap-height="720"
    bbox="-84 -216 1073 907"
    underline-thickness="56"
    underline-position="-129"
    unicode-range="U+0020-F002"
  />
<missing-glyph horiz-adv-x="784" 
d="M49 0v784h686v-784h-686zM686 49v686h-588v-686h588z" />
    <glyph glyph-name=".notdef" horiz-adv-x="784" 
d="M49 0v784h686v-784h-686zM686 49v686h-588v-686h588z" />
    <glyph glyph-name=".null" unicode="&#xd7;" horiz-adv-x="0" 
 />
    <glyph glyph-name=".null" unicode="&#x141;" horiz-adv-x="0" 
 />
    <glyph glyph-name=".null" unicode="&#xfd;" horiz-adv-x="0" 
 />
    <glyph glyph-name="nonmarkingreturn" horiz-adv-x="290" 
 />
    <glyph glyph-name="space" unicode=" " horiz-adv-x="290" 
 />
    <glyph glyph-name="exclam" unicode="!" horiz-adv-x="265" 
d="M69 720h130l-35 -521h-61zM53 66l79 80l80 -79l-80 -81z" />
    <glyph glyph-name="quotedbl" unicode="&#x22;" horiz-adv-x="311" 
d="M47 490l20 230h77l-21 -230h-76zM168 490l20 230h76l-20 -230h-76z" />
    <glyph glyph-name="numbersign" unicode="#" horiz-adv-x="585" 
d="M47 224l11 50h115l36 172h-115l10 50h116l44 210h50l-45 -210h105l44 210h49l-44 -210h115l-10 -50h-115l-37 -172h115l-10 -50h-115l-45 -210h-49l44 210h-104l-45 -210h-49l44 210h-115zM222 274h105l36 172h-104z" />
    <glyph glyph-name="dollar" unicode="$" horiz-adv-x="520" 
d="M26 33l7 78l14 -11q48 -36 96 -50t84 -14q60 0 98 29.5t43 63t5 40.5q0 34 -21.5 61.5t-71.5 58.5l-53 33l-16 9l-67 39l-30 21q-77 64 -77 146q0 101 57.5 136.5t85.5 43t55 7.5v75h54v-74q8 1 16 1h12q23 0 73 -9l22 -5l9 -1l7 -2l11 -1l6 -1h8l9 -84l-11 8l-13 8
q-78 49 -150 49q-78 0 -107 -43t-29 -74q0 -36 30 -71.5t91 -70.5l27 -15l51 -28l23 -13q29 -15 72 -55t43 -116q0 -53 -30 -101.5t-68 -68.5t-61 -28t-41 -11v-78h-54v72q-45 0 -73 4t-78 20l-29 10l-15 6z" />
    <glyph glyph-name="percent" unicode="%" horiz-adv-x="780" 
d="M34 521l1 36q0 91 35.5 133.5t106.5 42.5h15q12 -2 45 -5t64 -43.5t31 -127.5v-73q0 -86 -31 -126.5t-65.5 -44.5t-44 -4.5t-13.5 -0.5q-71 0 -107 42t-36 134zM129 521l1 -43q0 -48 2 -64t11.5 -39.5t40.5 -23.5q9 0 22 7t21.5 24.5t8.5 48.5q0 171 -8.5 215t-44.5 44
q-28 0 -40.5 -26t-12.5 -99zM113 0l493 720h66l-494 -720h-65zM446 197q0 108 37.5 161.5t108.5 53.5q6 0 14.5 -1t43.5 -5t64.5 -43t29.5 -130v-35t1 -33q0 -86 -31 -126.5t-67 -46t-54 -5.5q-14 0 -49 4.5t-65.5 44.5t-30.5 126zM541 197l1 -42q0 -47 2 -62t11 -39t40 -24
q9 0 25 8.5t23 46.5t7 160q0 45 -2 60t-11.5 39t-39.5 24q-10 0 -25.5 -8t-23 -40t-7.5 -123z" />
    <glyph glyph-name="ampersand" unicode="&#x26;" horiz-adv-x="696" 
d="M176 384l-9 13l-5 6l-16 22l-12 16l-18 27q-29 51 -29 100q0 93 64.5 124t89.5 34.5t42 3.5q27 0 62 -10t59.5 -43.5t24.5 -75.5q0 -40 -17 -66.5t-29.5 -40t-47.5 -45.5l-16 -14l-14 -12l-14 -12q44 -59 90.5 -115.5t100.5 -116.5l6 9l9 14q31 55 31 103l-1 13
q-4 38 -15 52h145l-13 -17l-19 -30l-7 -10l-15 -25l-12 -18l-16 -24l-11 -18l-29 -47l-5 -8l-19 -26l30 -33q35 -37 65.5 -62.5t49.5 -36.5l9 -4l14 -7l10 -4h-189l-58 66q-18 -18 -54 -42t-79 -30t-67 -6q-49 0 -97 18t-80 63.5t-32 101.5q0 29 9 57t26 50.5t35.5 41.5
t54.5 50zM211 338l-12 -11q-27 -28 -40 -51t-16 -38.5t-3 -24.5v-14q0 -63 41 -103t105 -40q16 0 51.5 6.5t69.5 40.5l-51 57q-37 43 -73 86t-72 92zM263 448l12 11l27 28q35 41 43 67.5t8 49.5q0 11 -2.5 28t-23.5 35.5t-49 18.5q-20 0 -53 -17t-33 -77q0 -14 3.5 -33.5
t26.5 -51.5l13 -21l11 -15l11 -15z" />
    <glyph glyph-name="quotesingle" unicode="'" horiz-adv-x="191" 
d="M47 490l20 230h77l-21 -230h-76z" />
    <glyph glyph-name="parenleft" unicode="(" horiz-adv-x="290" 
d="M299 792l-13 -17q-67 -83 -99 -164t-32 -194v-114q0 -114 31.5 -194t99.5 -165l13 -17l-10 6l-11 6q-115 67 -154.5 150t-51 121.5t-16.5 73.5t-5.5 50.5t-0.5 24.5q0 117 39.5 201t85.5 135.5t103 84.5l11 6z" />
    <glyph glyph-name="parenright" unicode=")" horiz-adv-x="290" 
d="M-9 -73l14 17q67 84 99 165t32 194v114q0 114 -31 193t-100 165l-14 17l11 -6l11 -6q56 -33 101.5 -83.5t85.5 -135.5t40 -201q0 -117 -39.5 -201t-85 -135.5t-102.5 -84.5l-11 -6z" />
    <glyph glyph-name="asterisk" unicode="*" horiz-adv-x="371" 
d="M22 601l41 68l105 -84l-26 138h83l-22 -142l105 90l41 -69l-131 -48l126 -50l-43 -66l-99 87l23 -137h-80l27 138l-108 -88l-41 70l129 48z" />
    <glyph glyph-name="plus" unicode="+" 
d="M37 311v97h204v204h94v-204h205v-97h-205v-203h-94v203h-204z" />
    <glyph glyph-name="comma" unicode="," horiz-adv-x="200" 
d="M12 -128l27 46q31 52 31 80q0 16 -11.5 36.5t-32.5 30.5l78 79l81 -79q-9 -50 -42 -93.5t-98 -82.5z" />
    <glyph glyph-name="hyphen" unicode="-" horiz-adv-x="390" 
d="M31 239l41 80h287l-40 -80h-288z" />
    <glyph glyph-name="hyphen" unicode="&#xad;" horiz-adv-x="390" 
d="M31 239l41 80h287l-40 -80h-288z" />
    <glyph glyph-name="period" unicode="." horiz-adv-x="188" 
d="M15 66l79 79l79 -79l-79 -80z" />
    <glyph glyph-name="slash" unicode="/" horiz-adv-x="530" 
d="M24 -71l425 861h57l-423 -861h-59z" />
    <glyph glyph-name="zero" unicode="0" horiz-adv-x="578" 
d="M40 353l2 56q0 137 49.5 213t114.5 93.5t100 17.5q114 0 171.5 -109t57.5 -333q0 -150 -67.5 -229t-173.5 -79q-117 0 -185 78.5t-68 237.5zM157 358v-37q0 -27 2 -51t7 -68t16 -77.5t35.5 -63.5t72.5 -30q39 0 64 24.5t37.5 58t21.5 99.5q4 21 6 48t2 47v103
q0 30 -1 44.5t-7.5 65t-16 80t-25.5 48.5t-36 28t-41 9q-48 0 -76 -36t-44 -92.5t-16 -156.5z" />
    <glyph glyph-name="one" unicode="1" 
d="M189 703l45 3q62 8 118 31v-604v-14v-14v-25l1 -19q1 -15 4 -30.5t7 -30.5h-138q5 18 8 37.5t3 42.5v20v19v14v312l1 60v17v54q0 54 -8.5 78.5t-30.5 41.5l-7 5z" />
    <glyph glyph-name="two" unicode="2" horiz-adv-x="578" 
d="M30 0l26 30l30 35q43 49 64 75t90.5 119.5t102.5 159t33 120.5q0 53 -32 86t-85 33q-29 0 -56 -9t-47.5 -22.5t-40.5 -35.5l-13 -15l11 98l7 4l7 4l25 13q34 16 66 25.5t61 9.5q101 0 158 -45t57 -123q0 -23 -6.5 -52.5t-29 -67t-87.5 -123.5l-95 -119l-42 -51l-24 -29
l-28 -33h200q81 0 133 38l9 7l9 7l-37 -139h-466z" />
    <glyph glyph-name="three" unicode="3" horiz-adv-x="578" 
d="M54 124q33 -28 59.5 -39t43.5 -16t33 -6.5t25 -1.5q65 0 107 42t42 108q0 6 -1 14.5t-5.5 39t-44 67.5t-120.5 58l-14 4l-9 2l17 5q70 25 106.5 66.5t36.5 92.5q0 47 -27.5 76.5t-74.5 29.5q-8 0 -20 -2t-25.5 -6t-29 -11t-27.5 -14l-14 -8l21 71l5 3l5 2q32 16 68 23.5
t70 7.5h16q12 -2 43 -5t66.5 -39.5t35.5 -88.5q0 -31 -13 -60l-14 -27q-19 -32 -40.5 -53t-60.5 -43l-26 -12l28 -9q79 -28 120.5 -78.5t41.5 -114.5q0 -30 -14.5 -81t-77 -94t-145.5 -43q-49 0 -81.5 10.5t-45.5 17t-30 16.5l-4 3l-4 3z" />
    <glyph glyph-name="four" unicode="4" 
d="M6 247l323 473h91v-408h17q46 0 65.5 1.5t53.5 6.5l-7 -10q-32 -44 -48.5 -54t-55.5 -10h-23h-4v-97v-14v-21l1 -24q0 -23 3 -45.5t8 -44.5h-138q8 24 10.5 41.5t2.5 48.5v16v29l1 14v98h-300zM108 312h198v290z" />
    <glyph glyph-name="five" unicode="5" 
d="M54 124l6 -6l7 -5q28 -24 69 -38.5t78 -14.5q41 0 71.5 15.5t47 40t22.5 52t6 58.5q0 56 -49.5 103.5t-148.5 78.5l-30 9l51 303h217q34 0 57.5 3t39.5 8l7 2l7 4l-48 -112h-239l-27 -152l21 -6q81 -27 131.5 -59.5t78.5 -69.5t38 -69t10 -68q0 -72 -43 -129.5t-89.5 -70
t-68 -14.5t-45.5 -2q-47 0 -86 13.5t-70 37.5z" />
    <glyph glyph-name="six" unicode="6" 
d="M436 738l-11 -3l-10 -4l-22 -9q-90 -40 -137 -109.5t-67 -201.5l-3 -22l-2 -15q20 18 59 40.5t91 22.5q57 0 103 -34t58 -74t14.5 -63t2.5 -54q0 -84 -47 -142.5t-102 -71.5t-82 -13q-96 0 -156 79.5t-60 223.5v29.5t9.5 97.5t73.5 178t128.5 115t88 27t46.5 4
q17 0 25 -1zM179 260q-1 -8 -1 -17.5v-14.5l2 -36q5 -48 14.5 -75.5t34 -54t67.5 -26.5q44 0 64.5 26.5t29 51t11 48t2.5 38v21.5v14q0 38 -11 64.5t-36.5 52.5t-66.5 26q-62 0 -84 -42t-26 -76z" />
    <glyph glyph-name="seven" unicode="7" horiz-adv-x="578" 
d="M32 -18q44 57 79 115.5t94 174.5l25 50l147 312h-149q-75 0 -108 -9.5t-37 -11t-20 -9.5l19 139l298 -20l30 -1h20h17q57 0 99 7l-258 -507l-3 -7l-26 -44q-40 -69 -67.5 -99t-70.5 -54.5t-89 -35.5z" />
    <glyph glyph-name="eight" unicode="8" horiz-adv-x="578" 
d="M209 390l-9 4l-8 5l-25 16q-34 24 -55.5 47t-33.5 52.5t-12 57.5q0 42 23.5 77.5t75.5 60.5t126 25l35 -2q38 -4 71 -15q51 -19 79 -53.5t28 -76.5q0 -49 -25.5 -81.5t-50 -54.5t-51.5 -40l12 -6l13 -7l30 -18q24 -17 39.5 -30.5t32 -33t28 -50.5t11.5 -64
q0 -67 -42 -123.5t-104 -77.5t-113 -21q-100 0 -176 50t-76 139q0 40 19.5 80.5t56 71t82.5 57.5zM257 362l-19 -13q-47 -35 -70 -67t-26 -55.5t-3.5 -32.5t-0.5 -13q0 -63 39 -104t100 -41q17 0 70 12.5t66 63t13 69.5q0 44 -31.5 82.5t-101.5 80.5l-19 10l-7 3zM326 438
l10 10q31 29 44.5 58t17.5 47.5t4 32.5q0 45 -31 73t-83 28q-24 0 -50 -9.5t-43.5 -34t-17.5 -54.5q0 -29 17 -53.5t40 -43.5t67 -42z" />
    <glyph glyph-name="nine" unicode="9" 
d="M63 -17l11 6l11 6l25 15q70 42 116 89t88.5 119.5t62.5 147.5t20 144q0 75 -26 122t-82 47q-22 0 -39.5 -7t-41.5 -33t-27.5 -60.5t-3.5 -41.5v-11q0 -73 39.5 -115.5t105.5 -42.5q6 0 14.5 1t12.5 1l15 2q-50 -37 -130 -37q-74 0 -122 52t-48 129q0 11 1.5 22.5t11 53
t57 84t88 49t54.5 7.5t26 1q96 0 154.5 -62.5t58.5 -172.5q0 -42 -7 -80t-17 -69.5t-37 -92.5t-93.5 -130t-143.5 -106t-154 -37z" />
    <glyph glyph-name="colon" unicode=":" horiz-adv-x="219" 
d="M30 66l79 79l79 -79l-79 -80zM31 438l79 80l79 -80l-79 -80z" />
    <glyph glyph-name="semicolon" unicode=";" horiz-adv-x="232" 
d="M28 -128l27 46q31 52 31 80q0 16 -11.5 36.5t-32.5 30.5l78 79l81 -79q-9 -50 -42 -93.5t-98 -82.5zM41 440l80 80l81 -80l-81 -81z" />
    <glyph glyph-name="less" unicode="&#x3c;" horiz-adv-x="515" 
d="M47 360l421 237v-87l-277 -150l277 -150v-87z" />
    <glyph glyph-name="equal" unicode="=" horiz-adv-x="578" 
d="M36 234v89h506v-89h-506zM36 397v89h506v-89h-506z" />
    <glyph glyph-name="greater" unicode="&#x3e;" horiz-adv-x="515" 
d="M47 123v87l277 150l-277 150v87l421 -237z" />
    <glyph glyph-name="question" unicode="?" horiz-adv-x="385" 
d="M17 614v72l9 5l9 6l20 10q27 13 53.5 19t52.5 6q88 0 139 -44t51 -114q0 -16 -4 -35.5t-15.5 -40t-37.5 -50.5l-56 -56l-14 -16q-38 -45 -47.5 -70.5t-9.5 -89.5v-20h-63v36v20l-2 52q0 22 5.5 38t22.5 42l29 40l4 6l17 23l20 31q24 34 27.5 53t3.5 35q0 41 -25.5 66.5
t-69.5 25.5q-7 0 -12 -0.5t-16 -3t-23 -6.5t-22 -8q-27 -14 -46 -32zM57 67l79 80l79 -80l-80 -81z" />
    <glyph glyph-name="at" unicode="@" horiz-adv-x="756" 
d="M443 230q-5 -18 -30 -47.5t-71 -29.5q-27 0 -57.5 14t-50 58t-19.5 117l4 35q15 95 53.5 140t66 59t55.5 14q59 0 87 -53l5 -10l9 57l49 -1l-38 -215l-14 -87q-2 -12 -2 -31t7 -40.5t38 -21.5q7 0 17.5 3.5t23.5 14t31 32t31.5 55t19 68.5t5.5 65q0 116 -70.5 188.5
t-181.5 72.5q-11 0 -25 -1.5t-73 -10t-133 -99.5t-74 -218v-23q2 -11 3.5 -26.5t2 -19t17 -69t94 -127.5t177.5 -62q43 0 82.5 11t72.5 31t61.5 44.5t50.5 54.5l20 -36l-25 -29q-58 -61 -125 -91t-141 -30q-153 0 -251 113t-98 286q0 55 19 105.5t58.5 104t103.5 92
t106 43.5t54.5 5h19.5q134 0 220 -87t86 -222q0 -16 -1 -32.5t-10.5 -71t-56 -111.5t-77 -61.5t-41.5 -4.5q-39 0 -64 25t-21 60zM273 291q0 -19 3.5 -34t15 -39.5t51.5 -24.5q27 0 44 17t26 32.5t20.5 49t20.5 81.5l2 10l7 42q2 11 2 21.5v15.5q0 15 -3 33t-21 34t-43 16
q-15 0 -34 -8t-37 -32.5t-35 -75.5l-13 -49q-4 -24 -5 -45t-1 -44z" />
    <glyph glyph-name="A" unicode="A" horiz-adv-x="651" 
d="M-16 0q11 17 23.5 39.5t24.5 51.5l14 31l6 14l5 14l38 95l44 112l38 100l48 135q7 21 13 42t6 37q0 12 -5 32l-3 9l-3 8h122l120 -286l33 -78q77 -184 106.5 -244.5t65.5 -111.5h-154q-5 37 -26 90l-14 36l-4 9l-3 6l-3 8l-71 167h-226l-62 -166l-2 -7l-3 -8l-5 -15
l-9 -29q-5 -16 -8 -31.5t-3 -27.5q0 -13 1 -20q3 -8 3 -12h-107zM193 361h194l-103 246z" />
    <glyph glyph-name="B" unicode="B" horiz-adv-x="584" 
d="M54 0q6 21 9.5 42.5t3.5 48.5l1 29v15v15v420v6v8v29v16l-3 44l-8 45h29l33 -1q22 0 49 1t58 3l40 3l39 3q11 1 18 1.5t14 -0.5q29 0 46 -3t48 -14t55.5 -46t24.5 -80q0 -46 -30.5 -92t-92.5 -76l-32 -12l14 -2q182 -30 182 -183q0 -10 -0.5 -18t-7.5 -61t-85 -97
t-255 -44h-150zM182 415l12 -1h14l28 1q61 0 98.5 28t53.5 77q6 23 6 44q0 7 -5.5 38t-42.5 53.5t-115 22.5l-36 -1h-13v-262zM183 138v-32q0 -37 19 -50t74 -13q14 0 21.5 1.5t39.5 12.5t61.5 47t29.5 85q1 6 1 13v11q0 154 -196 154h-26l-13 -1h-11v-228z" />
    <glyph glyph-name="C" unicode="C" horiz-adv-x="626" 
d="M569 710l8 -96l-23 16q-14 9 -30.5 17t-52 20.5t-81.5 12.5q-88 0 -145 -64t-64.5 -132t-8.5 -86.5t-1 -34.5q0 -150 63.5 -232t165.5 -82q50 0 91.5 18t88.5 65l20 23l-29 -94q-44 -36 -98.5 -55t-107.5 -19q-90 0 -167 50.5t-116 135.5t-39 195q0 125 66.5 217
t144.5 117.5t128 25.5h32q16 -3 23 -4l30 -4l22 -3l25 -4l7 -1l3 -1l17 -2l11 -1h5z" />
    <glyph glyph-name="D" unicode="D" horiz-adv-x="711" 
d="M54 0q6 20 10 42.5t4 46.5v25v20v15v421v5v10v19l-1 26q0 26 -3 46.5t-9 43.5h84q11 0 43 2t45 2q233 0 337 -80.5t104 -273.5q0 -87 -24.5 -150.5t-76 -117t-122.5 -78.5t-182 -25l-76 1h-133zM182 139v-39l1 -7q0 -27 16.5 -39.5t58.5 -12.5q19 0 84.5 7.5t131.5 90.5
t66 224q0 26 -13.5 171.5t-261.5 145.5q-29 0 -62 -3l-21 -3v-535z" />
    <glyph glyph-name="E" unicode="E" horiz-adv-x="516" 
d="M55 0q7 30 9 40t2 38l2 37v9v498v22q0 24 -5 52l-3 15l-2 9h399l11 -70q-26 10 -56 16.5t-65 6.5l-35 2h-130v-273h94h26q30 0 51.5 5t50.5 17v-89q-28 11 -56.5 16t-71.5 5h-93v-304h160q56 0 87.5 4t69.5 16l20 7l-40 -79h-425z" />
    <glyph glyph-name="F" unicode="F" horiz-adv-x="464" 
d="M53 0l4 13l3 13q7 34 7 78v523v18l-6 51l-2 12l-3 12h400l11 -69l-14 3l-24 5q-72 16 -120 16h-127v-284h96q55 0 100 13l13 3l12 5v-88l-13 4l-11 3l-19 4q-30 6 -50 8t-32 2h-97v-237q0 -64 12 -108h-140z" />
    <glyph glyph-name="G" unicode="G" horiz-adv-x="730" 
d="M641 710l10 -102q-28 24 -58.5 38t-67.5 23t-48 10.5t-27 1.5q-125 0 -204 -77t-79 -221q0 -40 4 -73t33.5 -153.5t213.5 -120.5h18q13 2 24 2.5t24 3t40 9.5l31 11v207l-1 42l-2 15l-1 11l-2 11l-3 12h133l-3 -11l-2 -10l-3 -30v-15v-19v-177v-18v-17q0 -25 8 -54l-21 2
q-7 0 -16 1t-16 1q-9 0 -21 -2t-22 -3l-15 -2l-62 -12l-35 -5q-32 -3 -60 -3q-167 0 -268.5 96.5t-101.5 252.5q0 66 25 158.5t123.5 164t233.5 71.5h25t35 -4l22 -3l34 -4l44 -6l20 -3h23h7z" />
    <glyph glyph-name="H" unicode="H" horiz-adv-x="684" 
d="M53 0q7 23 10 41.5t3 48.5l1 29v16v12v423v14v13v32q0 29 -2.5 47.5t-9.5 43.5h138q-5 -21 -8 -43.5t-3 -47.5v-20v-24v-15v-167h320v167v15v25l-1 19q0 28 -1.5 42.5t-8.5 48.5h138q-12 -39 -12 -91l-1 -30v-15v-14v-421v-14l1 -16v-29q0 -31 2.5 -46t11.5 -44h-143
q5 19 9 42t4 48l1 45v14v203h-321v-203l1 -14v-23v-22l1 -21q0 -16 3.5 -32.5t9.5 -36.5h-143z" />
    <glyph glyph-name="I" unicode="I" horiz-adv-x="249" 
d="M53 0q7 21 10.5 41.5t3.5 48.5l1 45v8v425v14v18l-1 27q0 51 -14 93h143q-8 -24 -11 -42t-3 -51v-35l-1 -10v-14v-419v-14l1 -45q0 -30 3 -48t11 -42h-143z" />
    <glyph glyph-name="J" unicode="J" horiz-adv-x="248" 
d="M-25 -88l14 6q41 22 59.5 64t18.5 129v35v22v400l1 14v45q0 34 -2 51.5t-8 41.5h135q-6 -31 -8.5 -49.5t-2.5 -43.5v-20v-24v-15v-348l1 -50l1 -11l1 -19q0 -120 -47 -175t-143 -55z" />
    <glyph glyph-name="K" unicode="K" horiz-adv-x="570" 
d="M54 720h139l-8 -45l-3 -45v-9v-36v-14v-178l9 10l11 11l5 5l9 10l8 9l7 7l20 23l88 103l12 15q43 51 56 76.5t13 57.5h132l-47 -45l-16 -16l-26 -29l-25 -28l-15 -16l-5 -6l-8 -9l-141 -161l200 -281q33 -48 64 -77t69 -52h-125q-38 0 -53.5 8t-37.5 39l-205 300v-197
l-1 -14v-31l1 -14q0 -11 0.5 -17t3 -23t4 -24t6.5 -27h-141q5 17 8.5 33.5t3.5 45.5v39l1 15v439v14l-1 24v21q0 27 -2.5 44.5t-9.5 44.5z" />
    <glyph glyph-name="L" unicode="L" horiz-adv-x="471" 
d="M54 0l3 13l3 13q7 32 7 82v504v19l-1 30q0 21 -1.5 31t-7.5 28h135l-3 -13l-2 -11l-2 -12l-2 -18l-2 -42v-572h123l35 1q33 0 65.5 7.5t68.5 21.5l-34 -82h-385z" />
    <glyph glyph-name="M" unicode="M" horiz-adv-x="829" 
d="M43 0q7 21 10.5 41.5t3.5 48.5l3 45v12l13 408v35q0 35 -3 56q0 28 -4.5 44t-13.5 30h141l219 -546l204 546h141l-2 -6l-2 -7q-6 -23 -8 -45t-2 -81v-23l21 -410l1 -14l2 -22l2 -23q6 -47 20 -89h-140q7 35 7 90l-2 28v17l-1 10v4l-29 427l-217 -576h-45l-233 580
l-15 -432v-14v-20v-25q0 -46 17 -89h-88z" />
    <glyph glyph-name="N" unicode="N" horiz-adv-x="698" 
d="M47 720h121l403 -544v394v14v16v29q0 24 -2.5 45.5t-8.5 45.5h82l-5 -23q-3 -18 -5 -34.5t-2 -33.5v-45v-14v-570h-75l-431 580v-431l1 -14v-12v-33l1 -21q0 -19 2.5 -33t9.5 -36h-82q12 44 12 90l1 25v20v14v431v12q0 33 -3.5 61t-7.5 42t-11 25z" />
    <glyph glyph-name="O" unicode="O" horiz-adv-x="778" 
d="M43 361q0 65 18 122t54 106.5t93.5 85t97 42.5t63 8t25.5 1q146 0 243.5 -98.5t97.5 -254.5q0 -142 -75 -246t-157.5 -120.5t-123.5 -16.5q-187 0 -261.5 127t-74.5 244zM173 363q0 -156 62 -241t154 -85t153 85t61 244l-4 62q-9 72 -31.5 123.5t-66.5 91t-114 39.5
q-49 0 -91.5 -23.5t-67 -62.5t-36 -77.5t-15 -75.5t-4 -48t-0.5 -18v-14z" />
    <glyph glyph-name="P" unicode="P" horiz-adv-x="528" 
d="M56 0q5 21 8 41.5t3 48.5l1 30v15v14v420v15v16v28l-1 21q0 20 -1 27t-10 44h85l94 2l42 2q115 0 179.5 -48t64.5 -131q0 -38 -18.5 -95.5t-74.5 -89t-85 -36t-36.5 -5.5t-23.5 -1q-46 0 -83 17h16q74 0 122.5 41.5t57 88t8.5 70.5q0 71 -36 106.5t-111 35.5l-33 1h-28
l-14 -1v-527l1 -15v-15v-30q0 -28 2.5 -47t9.5 -43h-139z" />
    <glyph glyph-name="Q" unicode="Q" horiz-adv-x="774" 
d="M519 13l15 -28q32 -50 70 -59t54 -9q40 0 70 24l11 9q-30 -72 -80 -81t-65 -9q-27 0 -62 13t-58.5 36.5t-45.5 68.5l-7 15l-16 -1q-11 -1 -19 -1.5t-13 -0.5q-88 0 -160 44t-113 114t-48 111.5t-8 59.5t-1 39q0 65 18 123.5t54 108t93.5 85t106.5 43.5t77 8
q146 0 244.5 -101.5t98.5 -257.5v-38q-3 -17 -10 -70.5t-62.5 -130t-143.5 -115.5zM487 80l28 36q55 72 70.5 109.5t15.5 111.5v36v14q0 23 -7 82t-41 112.5t-76 77t-89 23.5q-36 0 -67.5 -12t-89 -64t-57.5 -273q0 -33 7 -66t20 -69l12 16q25 28 50 41t51 13h11q8 -2 24 -4
t43 -23.5t39 -41t43 -90.5zM221 145q38 -75 84.5 -89t63 -16t33.5 -2l-9 22l-2 6l-18 50l-5 14q-28 77 -69 77q-21 0 -45 -19t-33 -43z" />
    <glyph glyph-name="R" unicode="R" horiz-adv-x="600" 
d="M53 720h106l77 5l36 3l28 1h36q23 0 41 -4t50 -17t58.5 -53t26.5 -89q0 -33 -10.5 -61t-43.5 -67t-104 -64l-32 -9l170 -217q45 -57 84 -91t85 -57h-83q-65 0 -88.5 9t-62.5 51l-21 24l-141 179l-26 34q-11 15 -18.5 22t-22.5 16l-10 6l-6 3v-196v-14v-22v-23
q0 -49 13 -89h-140q7 25 9.5 43t2.5 47l1 28v16v15v419v15l-1 27v17q0 52 -14 93zM182 387l10 -1h9h25q62 0 105 34t52 73.5t9 62.5q0 60 -43.5 91.5t-122.5 31.5l-33 -3l-11 -1v-288z" />
    <glyph glyph-name="S" unicode="S" horiz-adv-x="525" 
d="M29 33l7 78l15 -12q45 -35 82 -46.5t56 -14.5t41 -3q59 0 97.5 30t43.5 63.5t5 40.5q0 34 -21.5 61.5t-71.5 58.5l-53 33l-16 9l-67 39q-29 17 -55.5 45t-39 59t-12.5 65q0 47 23.5 88.5t75.5 71.5t140 30q29 0 44 -1t46 -7l24 -4l17 -3l14 -3l7 -2l11 -1l6 -1h8l9 -84
l-11 8l-13 8q-78 49 -150 49q-78 0 -107 -43t-29 -74q0 -36 30 -71.5t91 -70.5l27 -15l51 -28l23 -13q29 -15 72 -55t43 -116q0 -53 -30 -101.5t-77 -73.5t-87 -33t-62 -8q-40 0 -70.5 4.5t-78.5 20.5l-29 10l-16 6z" />
    <glyph glyph-name="T" unicode="T" horiz-adv-x="593" 
d="M-2 651l12 69h573l12 -69l-16 4l-15 4l-24 5q-63 11 -102 11h-85v-559v-27.5t4 -39.5l3 -19l2 -15l3 -15h-137l3 15l2 15l3 19q2 14 3 32.5t1 34.5v559h-85q-29 0 -43.5 -1.5t-58.5 -9.5l-24 -5l-15 -4z" />
    <glyph glyph-name="U" unicode="U" horiz-adv-x="689" 
d="M56 720h134q-5 -27 -7 -45t-2 -48v-13v-32v-14v-365q0 -70 29.5 -104.5t67 -39t54.5 -4.5q16 0 62 8t79.5 50.5t33.5 124.5v329v15v26v18q1 12 -2 45l-9 49h135q-9 -39 -9 -93v-45v-14v-419v-14v-45q0 -28 2.5 -47t9.5 -43h-127v83q-74 -80 -193 -95l-45 -2
q-109 0 -155 47t-46 153v382v14l-1 45q0 30 -2 48.5t-9 44.5z" />
    <glyph glyph-name="V" unicode="V" horiz-adv-x="619" 
d="M-16 720h158q0 -29 2.5 -46t12.5 -48l10 -29l5 -16l6 -14l170 -451l147 450l4 15l5 13l9 32q9 29 9 51q0 19 -8 43h117q-22 -37 -37 -72l-9 -22l-3 -9l-14 -36l-5 -14l-39 -107q-56 -154 -85.5 -237t-41.5 -120l-15 -44l-19 -59h-97q-19 57 -38 109.5t-65 175.5l-110 282
l-6 14l-6 16l-12 29l-11 26l-9 18q-6 15 -7.5 18.5t-17.5 31.5z" />
    <glyph glyph-name="W" unicode="W" horiz-adv-x="928" 
d="M15 720h145l3 -49l1 -7l9 -38l10 -45l4 -14l65 -268l29 -127l11 -47l109 380q13 47 19.5 79.5t6.5 51.5q0 13 -2.5 34.5t-7.5 35.5l-2 6l-3 8h145q-2 -4 -3.5 -15t-1.5 -44q0 -21 16 -82l18 -61l3 -10l113 -381l9 39l7 29l20 81l22 88l41 164l10 40l2 7l2 7l3 18
q7 36 7 62q0 29 -13 58h101l-17 -48l-3 -11l-9 -34l-12 -45l-4 -14l-58 -224l-52 -198l-35 -146h-104l-71 242l-42 146l-43 146l-83 -288l-35 -123l-34 -123h-112l-12 59l-10 48q-22 105 -80 335l-32 124l-2 8l-1 7l-5 16l-8 28l-9 29l-5 16q-3 8 -9 23.5t-11 26.5z" />
    <glyph glyph-name="X" unicode="X" horiz-adv-x="657" 
d="M-12 720h178q7 -33 26 -61t39 -57l110 -156l81 123l9 14l16 27l10 18q18 33 18 64q0 14 -3 28h129l-20 -23q-35 -40 -55 -70l-3 -5l-27 -39l-10 -15l-116 -166l191 -271q36 -51 60 -77t58 -54h-180l-6 19q-9 25 -25 48t-33 47l-138 196l-109 -161l-9 -15l-7 -11l-20 -33
q-21 -38 -21 -62q0 -11 5 -28h-132q36 33 79 90l18 25l14 20l10 14l141 208l-162 228q-48 68 -67 90t-49 45z" />
    <glyph glyph-name="Y" unicode="Y" horiz-adv-x="551" 
d="M-22 720h151l190 -347l116 256q16 33 16 70v11v10h110l-9 -13l-7 -11l-9 -13l-11 -18l-26 -48l-123 -246l-3 -7l-9 -18q-14 -33 -14 -56l-1 -20v-15v-152v-7l2 -26q4 -45 11 -70h-145q6 15 11.5 44.5t5.5 50.5v203l-191 329q-7 12 -16 25.5t-14 20.5l-5 7l-16 20l-4 5z
" />
    <glyph glyph-name="Z" unicode="Z" horiz-adv-x="604" 
d="M4 0l418 675h-217q-47 0 -80 -4t-81 -16l-19 -5l14 70h551l-416 -668h202q29 0 63 3t65 8t46 8t48 11l-15 -82h-579z" />
    <glyph glyph-name="bracketleft" unicode="[" horiz-adv-x="239" 
d="M64 -75v870h149v-61h-52v-747h52v-62h-149z" />
    <glyph glyph-name="backslash" unicode="\" horiz-adv-x="297" 
d="M47 720h76l127 -720h-77z" />
    <glyph glyph-name="bracketright" unicode="]" horiz-adv-x="236" 
d="M26 -75v62h52v747h-52v61h146v-870h-146z" />
    <glyph glyph-name="asciicircum" unicode="^" horiz-adv-x="569" 
d="M47 170l237 421l238 -421h-87l-151 277l-150 -277h-87z" />
    <glyph glyph-name="underscore" unicode="_" horiz-adv-x="454" 
d="M47 -30v30h360v-30h-360z" />
    <glyph glyph-name="grave" unicode="`" horiz-adv-x="205" 
d="M-13 672h114l39 -143z" />
    <glyph glyph-name="a" unicode="a" horiz-adv-x="465" 
d="M407 356v-241v-12l1 -11v-22l2 -26v-9l4 -35h-110l2 67q-18 -26 -52 -52.5t-91 -26.5q-46 0 -81 27q-42 35 -42 88q0 50 25.5 73t44.5 34.5t32 18.5l7 3l58 29l19 10q46 26 60.5 41.5t17.5 41.5l1 10v14l-1 21q0 39 -17.5 59.5t-51.5 20.5q-7 0 -27.5 -3.5t-33 -19
t-19.5 -55.5l-7 -16q-18 -29 -52 -24q-21 2 -33 17t-8 35q7 35 48 63t79 32l47.5 5t19.5 1h11q76 0 111.5 -29t35.5 -80v-29v-20zM306 283q-20 -16 -34.5 -25t-51.5 -30t-57 -45.5t-20 -55.5q0 -34 20 -56t51 -22q11 0 28 5l18 9q46 28 46 87v133z" />
    <glyph glyph-name="b" unicode="b" horiz-adv-x="525" 
d="M52 720h109v-289l7 11q21 30 54 49.5t69 19.5q83 0 138.5 -64.5t55.5 -180.5q0 -34 -10 -102t-70 -123t-147 -55q-22 0 -52 5l-7 2l-34 8l-19 3q-23 3 -34 2q-13 0 -23 -2.5t-20 -8.5l-4 -3l-4 -3v617l-1 13v9l-1 24q0 28 -1 36t-6 32zM160 127l4 -35q5 -28 29.5 -46.5
t58.5 -18.5q17 0 43.5 9t49 49.5t30.5 119.5v28t1 28q0 11 -4 56.5t-33 86t-75 40.5q-47 0 -75.5 -34t-28.5 -103v-85l-1 -91z" />
    <glyph glyph-name="c" unicode="c" horiz-adv-x="419" 
d="M385 502l2 -74q-30 29 -56.5 33.5t-34.5 4.5h-13q-55 0 -87.5 -40.5t-41.5 -127.5q0 -15 -0.5 -26.5t-0.5 -19.5q0 -7 1 -15.5t5.5 -50t40 -83.5t89.5 -42q30 0 54 9.5t36 16.5t26 19l-19 -64q-19 -16 -54.5 -33t-81.5 -17q-77 0 -135.5 55.5t-66 114t-7.5 81.5v16
q0 116 65.5 184.5t163.5 68.5h16t19 -2l21 -3l15 -2l18 -3l4 -1h4h7h7z" />
    <glyph glyph-name="d" unicode="d" horiz-adv-x="524" 
d="M363 496v114v13v33l-1 27v7l-3 30h104v-605v-12l1 -34q0 -22 1.5 -34t6.5 -35h-110v71l-15 -22q-50 -57 -122 -57q-76 0 -130 63t-54 204q0 119 63.5 188.5t158.5 69.5q35 0 79 -13zM149 265q0 -25 1 -44.5t6.5 -49t22 -58.5t37.5 -41t46 -12q59 0 77 35.5t21.5 58
t3.5 70.5v29l-1 65q0 88 -16 120t-46 36t-38 3q-49 -5 -80.5 -49t-31.5 -130z" />
    <glyph glyph-name="e" unicode="e" horiz-adv-x="479" 
d="M394 323h-240l-2 -20q-3 -23 -3 -44q0 -13 1 -26.5t7 -53.5t43 -77t93 -37q45 0 98 27l43 28l6 5l8 7l-18 -66l-9 -8q-51 -47 -93 -56t-69 -9q-92 0 -155.5 64.5t-63.5 168.5q0 114 48 190t102 88t79 12q60 0 106 -34t60 -78t14 -56q0 -25 -23 -25h-7h-25zM158 357h127
q57 0 57 39q0 10 -3 23t-20.5 35t-55.5 22q-40 0 -61.5 -25.5t-31.5 -51.5l-8 -22l-2 -11z" />
    <glyph glyph-name="f" unicode="f" horiz-adv-x="245" 
d="M14 460v44h53v64q0 78 46.5 121.5t130.5 43.5q50 0 91 -21l-30 -51l-6 4l-11 6q-19 12 -35 13q-42 0 -59.5 -17.5t-24.5 -70.5l-1 -20v-72h100v-44h-101v-373l2 -34l1 -23l1 -6q0 -8 5 -24h-116l2 12l1 10l1 13l2 17l1 34v374h-53z" />
    <glyph glyph-name="g" unicode="g" horiz-adv-x="483" 
d="M114 44l-5 2l-15 6q-11 4 -21 10t-17.5 17.5t-7.5 27.5q0 32 62 59l39 13l20 4l-23 7q-25 7 -66.5 39t-41.5 111q0 80 53.5 127.5t157.5 47.5q25 0 52 -3l57 -8h124v-40h-91q43 -45 43 -107q0 -18 -4.5 -48.5t-36.5 -62.5t-107 -60l-16 -5l-3 -1l-42 -12l-11 -3l-23 -8
l-19 -9q-10 -7 -10 -19q0 -10 8 -16q12 -6 21 -7l29 -6l8 -1l99 -20l19 -4l70 -15l31 -8q63 -22 63 -77q0 -29 -29 -69t-84.5 -70.5t-101.5 -40t-86 -9.5q-88 0 -151.5 36.5t-63.5 86.5q0 44 40 80.5t80 54.5zM176 27l-18 -7q-61 -32 -61 -76q0 -12 7.5 -35t47 -46t94.5 -23
q6 0 14.5 1t32 3.5t56 21.5t45.5 41.5t13 38.5q0 31 -33 39l-22 6l-30 6zM143 338l4 -20q22 -87 55.5 -90.5t44.5 -3.5q84 0 84 110q0 26 -7.5 56.5t-27 53.5t-37 26.5t-28.5 3.5q-39 0 -64.5 -29.5t-25.5 -82.5z" />
    <glyph glyph-name="h" unicode="h" horiz-adv-x="524" 
d="M52 0l6 34l1 8l1 27l1 30l-1 15v496v12v19l-1 15v25l-1 9q0 12 -5 30h108v-276l12 11q51 46 84.5 52.5t47 7.5t23.5 1q60 0 95.5 -31.5t41.5 -87.5v-61v-222v-12l1 -34l1 -25l1 -9l5 -34h-107v327v4l-1 36l-3 23q-5 29 -28.5 46t-56.5 17q-18 0 -33 -4.5t-40 -20t-34 -36
t-9 -68.5v-210v-12l1 -33l1 -29v-6l4 -34h-115z" />
    <glyph glyph-name="i" unicode="i" horiz-adv-x="217" 
d="M49 0l5 34l1 13l1 22l1 22v11v13v275v13l-1 33l-1 31v4q0 11 -5 33h108v-389l-1 -13l1 -33l1 -26l1 -9l6 -34h-117zM45 634q0 26 19.5 43.5t46.5 17.5q26 0 45 -19t19 -44q0 -27 -19 -45t-47 -18t-46 19t-18 46z" />
    <glyph glyph-name="j" unicode="j" horiz-adv-x="224" 
d="M-4 -216q30 37 46.5 85t16.5 112l2 38l1 31l1 33v15v290v13v33l-1 28v7l-5 35h107v-405v-58l-1 -27q-6 -58 -16 -91.5t-33.5 -65t-53.5 -50.5t-64 -23zM53 633q0 27 19 45t48 18q13 0 24 -5t24.5 -18.5t13.5 -37.5t-18.5 -42.5t-46.5 -18.5q-26 0 -45 17t-19 42z" />
    <glyph glyph-name="k" unicode="k" horiz-adv-x="466" 
d="M53 720h109v-424l13 13l17 16l9 9l10 10l18 18q24 26 40.5 49.5t22.5 39.5t8 25.5t2 15.5q0 8 -1 12h143l-11 -8l-8 -7l-9 -8l-22 -20l-25 -24l-10 -10l-24 -22l-24 -24l-26 -26l-25 -26l-9 -9l-9 -9l147 -203q35 -46 56.5 -68t50.5 -40h-155l-180 258v-143v-13v-10
l1 -23q0 -22 1.5 -35t6.5 -34h-117q5 17 7 34l1 35l1 33l-1 12v495v13v6v27q0 38 -8 65z" />
    <glyph glyph-name="l" unicode="l" horiz-adv-x="223" 
d="M54 720h108v-605v-6v-7l2 -33l1 -28v-7l6 -34h-117l6 34v4v31l1 33v12v496v13v7v26q0 14 -0.5 26t-6.5 38z" />
    <glyph glyph-name="m" unicode="m" horiz-adv-x="804" 
d="M52 0q5 17 7 34v7l1 28l1 33v12v275v13l-1 33l-1 32l-5 37h108v-46l11 10q43 34 81.5 41t57.5 7q44 0 78 -18t53 -49l13 11q46 39 78 46t45.5 8t28.5 1q63 0 101 -31t38 -81v-100l-1 -105v-83v-8v-5v-33l1 -29l1 -6l6 -34h-108v112v98v22l-1 70q0 85 -16.5 118t-61.5 33
q-14 0 -48 -6t-50 -37t-16 -113l1 -21v-65v-23l-1 -74v-12v-33q0 -30 1 -38t7 -31h-116l6 33v6l1 29l1 33l1 13v49v37v95q0 86 -18.5 122t-65.5 36q-13 0 -45 -5.5t-48 -37t-16 -116.5v-11v-87v-82v-13l1 -33q0 -30 1 -37.5t7 -30.5h-118z" />
    <glyph glyph-name="n" unicode="n" horiz-adv-x="524" 
d="M52 0l6 35l1 8v27l1 33l1 12v276v13l-1 33l-1 31v4l-4 32h106v-58l9 9q15 13 29.5 23.5t35 20t44 14.5t44.5 5q59 0 98 -34t44 -87v-100v-10v-95l-1 -39v-38v-8l1 -5v-33l1 -26l1 -9l5 -34h-108v109v85v104l-1 82q-3 31 -27 51.5t-60 20.5q-17 0 -49 -8t-49.5 -40.5
t-17.5 -111.5v-106v-26v-45v-13v-7v-26l1 -25v-10l6 -34h-115z" />
    <glyph glyph-name="o" unicode="o" horiz-adv-x="557" 
d="M41 221q0 133 63.5 214.5t168.5 81.5q112 0 178 -67t66 -187q0 -22 -7 -86t-73.5 -126.5t-159.5 -62.5q-18 0 -62 6.5t-88.5 47t-65 83t-20.5 96.5zM151 308q-1 -8 -1 -17.5v-14.5q0 -29 6.5 -77t22.5 -83.5t43.5 -60t62.5 -24.5q31 0 57.5 19.5t40 56t17.5 82.5
q0 72 -2.5 109.5t-15.5 74.5t-38 69t-74 32q-56 0 -80 -38.5t-30.5 -70.5t-7.5 -38t-1 -19z" />
    <glyph glyph-name="p" unicode="p" horiz-adv-x="523" 
d="M54 -202l5 34v9l1 26l1 33v6v7v477v7v5l-1 34l-1 28v6l-4 34h107v-73l14 19q54 61 129 61q85 0 125 -60t46 -98.5t7 -64.5t1 -28q0 -113 -52 -184.5t-105 -80.5t-72 -9q-54 0 -95 24v-97v-13l1 -33l1 -27v-8l5 -34h-113zM161 229l1 -119q5 -39 28 -62.5t58 -23.5
q19 0 46.5 8.5t54.5 61t27 141.5v42q-3 20 -6 47.5t-18.5 57t-39.5 46.5q-24 15 -51 15q-59 0 -73.5 -29t-19.5 -43t-5 -34l-2 -17v-10v-81z" />
    <glyph glyph-name="q" unicode="q" horiz-adv-x="522" 
d="M361 431v73h108l-5 -34v-5l-1 -29v-34v-12v-477v-13v-33l1 -27l1 -8l4 -34h-112l4 34v7l1 28l1 33v13v97q-39 -24 -96 -24q-18 0 -71 9t-105 80.5t-52 186.5v22t7 59.5t34 89t63 59t76 19.5q74 0 128 -61zM147 230q0 -88 26.5 -138t51.5 -58t37.5 -9t13.5 -1q36 0 58 23
t27 63q1 16 1.5 51.5t0.5 67.5l-1 82v9l-1 17l-7 38q-10 32 -35.5 50.5t-56.5 18.5q-27 0 -54 -18t-43.5 -56t-16.5 -106z" />
    <glyph glyph-name="r" unicode="r" horiz-adv-x="283" 
d="M51 0q9 33 9 69l1 33v12v275v13l-1 33l-1 30v5q-2 17 -7 34h110v-75l5 8l7 9q15 21 37.5 40t42.5 27.5t40 6.5q-7 -33 -11 -61.5t-4 -59.5l-10 7q-28 16 -49 16q-32 0 -45.5 -33.5t-13.5 -76.5v-197v-7v-6l1 -33l1 -26l1 -9l6 -34h-119z" />
    <glyph glyph-name="s" unicode="s" horiz-adv-x="403" 
d="M23 95q20 -17 44 -30t46.5 -19.5t40 -10t26.5 -3.5q7 0 44.5 7t37.5 66q0 11 -5 31.5t-41 48.5l-17 12l-21 14l-29 17l-21 13q-98 65 -98 132q0 18 10 50.5t59.5 60.5t122.5 28l23 -2l14 -3l20 -3l12 -3l15 -2l9 -1h7l15 1l12 -75l-22 14q-12 7 -27 13t-42 13.5t-47 7.5
q-8 0 -32.5 -5t-34 -27.5t-9.5 -34.5q0 -23 19.5 -45.5t65.5 -50.5l19 -11q130 -73 130 -155q0 -32 -19.5 -71t-64 -61.5t-118.5 -22.5q-18 0 -36.5 1.5t-51.5 9.5l-20 4l-10 3l-10 4z" />
    <glyph glyph-name="t" unicode="t" horiz-adv-x="262" 
d="M9 461v43h56v114l103 30l-2 -144h85l-3 -43h-82v-313v-11l1 -14q0 -16 4.5 -41.5t43.5 -25.5q12 0 26 6l12 7l14 12l-4 -56l-5 -4l-4 -3l-14 -8q-41 -19 -77 -19q-39 0 -64.5 19t-30.5 49l-3 35l1 46v321h-57z" />
    <glyph glyph-name="u" unicode="u" horiz-adv-x="528" 
d="M53 504h108v-316v-33q0 -48 23 -77t63 -29q23 0 51 11l21 11q27 17 37.5 35t10.5 50v36v197l-1 12v13l-1 20v28v7l-3 35h105v-389v-8v-5l1 -11v-22l1 -24l1 -11l5 -34h-108v64q-26 -34 -60 -50t-58 -21t-46 -5q-57 0 -96.5 30t-44.5 74l-2 41l1 54v202v12l-1 34l-1 23
l-1 11z" />
    <glyph glyph-name="v" unicode="v" horiz-adv-x="459" 
d="M-4 504h135q-1 -6 -1 -18q0 -19 11 -52l8 -23l4 -10l5 -13l104 -276l98 276l2 7l2 6l4 13l6 20q3 9 4 18.5t1 19.5q0 18 -5 32h89l-17 -35l-4 -8l-10 -27l-13 -33l-5 -13l-141 -388h-76l-149 389l-4 12l-14 33l-11 27l-4 8z" />
    <glyph glyph-name="w" unicode="w" horiz-adv-x="725" 
d="M16 504h119l6 -35l1 -4l9 -31l9 -33l3 -13l80 -279l83 286l-2 19q-3 31 -6 45.5t-11 33.5l-3 7l-1 4h141l-2 -4l-2 -3q-2 -5 -3 -18t-1 -24q0 -14 9 -47l82 -302l83 283l3 11l3 12l6 23q5 20 5 38q0 17 -5 31h87l-17 -35l-4 -11l-9 -23l-7 -22l-4 -12l-2 -6l-2 -6
l-121 -389h-89l-96 347l-98 -347h-91l-110 389l-4 12l-3 10l-8 23l-8 25l-4 10z" />
    <glyph glyph-name="x" unicode="x" horiz-adv-x="506" 
d="M-4 504h155l111 -171l37 56l9 13l4 7l16 26q15 26 15 43q0 13 -7 26h114q-29 -27 -61 -69l-14 -19l-11 -14l-4 -6l-4 -6l-67 -96l141 -203q41 -58 92 -91h-159l-140 214l-64 -100l-3 -4l-5 -8l-8 -14q-19 -35 -19 -56q0 -17 12 -32h-134q34 25 68 69l14 20l10 13l9 13
l93 137l-129 185q-33 45 -71 67z" />
    <glyph glyph-name="y" unicode="y" horiz-adv-x="455" 
d="M179 80l-150 354q-12 27 -22 42t-25 28h152l-1 -10q0 -15 2 -27t5 -21l116 -295l116 277q10 24 10 45q0 18 -5 31h93q-11 -11 -18 -21.5t-19 -37.5l-215 -485q-39 -89 -91 -132.5t-111 -43.5q-9 1 -13 1q-44 4 -56 16.5t-12 29.5q0 21 15.5 33.5t34.5 12.5q6 0 24 -4
l9 -3l14 -5l17 -2q37 -3 70.5 26.5t51.5 76.5t18 69q0 21 -10 45z" />
    <glyph glyph-name="z" unicode="z" horiz-adv-x="441" 
d="M-6 0l289 463h-78l-24 -1q-55 -5 -85 -11.5t-60 -19.5l16 73h381l-290 -457h128q46 0 91.5 11t75.5 23l-22 -81h-422z" />
    <glyph glyph-name="braceleft" unicode="{" horiz-adv-x="316" 
d="M47 360q27 0 45 20t18 52v330q0 71 81 71h78v-45h-12q-35 0 -46.5 -11.5t-11.5 -46.5v-290q0 -31 -20 -54t-51 -26q31 -3 51 -26t20 -54v-290q0 -35 11.5 -46.5t46.5 -11.5h12v-45h-78q-81 0 -81 71v330q0 31 -17.5 51.5t-45.5 20.5z" />
    <glyph glyph-name="bar" unicode="|" horiz-adv-x="170" 
d="M47 0v720h76v-720h-76z" />
    <glyph glyph-name="braceright" unicode="}" horiz-adv-x="316" 
d="M47 -113v45h12q35 0 46.5 11.5t11.5 46.5v290q0 31 20 54t51 26q-31 3 -51 26t-20 54v290q0 35 -11.5 46.5t-46.5 11.5h-12v45h78q81 0 81 -71v-330q0 -31 17.5 -51.5t45.5 -20.5q-27 0 -45 -20t-18 -52v-330q0 -71 -81 -71h-78z" />
    <glyph glyph-name="asciitilde" unicode="~" horiz-adv-x="470" 
d="M47 288v18q0 58 26.5 88.5t70.5 30.5q29 0 61 -13l77 -31l12 -5q21 -6 33 -6q20 0 26 15.5t10 31.5l1 9h59v-18q0 -58 -26.5 -88.5t-70.5 -30.5q-29 0 -61 13l-78 31l-9 3q-26 8 -37 8q-18 0 -24 -15.5t-10 -31.5l-1 -9h-59z" />
    <glyph glyph-name="Adieresis" unicode="&#xc4;" horiz-adv-x="646" 
d="M-19 0q11 17 23.5 39.5t24.5 51.5l14 31l6 14l5 14l38 95l44 112l38 100l48 135q7 21 13 42t6 37q0 12 -5 32l-3 9l-3 8h122l120 -286l33 -78q77 -184 106.5 -244.5t65.5 -111.5h-154q-5 37 -26 90l-14 36l-4 9l-3 6l-3 8l-71 167h-226l-62 -166l-2 -7l-3 -8l-5 -15
l-9 -29q-5 -16 -8 -31.5t-3 -27.5q0 -13 1 -20q3 -8 3 -12h-107zM190 361h194l-103 246zM119 836q0 30 20.5 50.5t51.5 20.5q29 0 51 -20.5t22 -49.5q0 -30 -21.5 -50.5t-52.5 -20.5q-30 0 -50.5 20.5t-20.5 49.5zM341 836q0 29 21 50t52 21q29 0 51 -21t22 -50t-21 -49.5
t-51 -20.5q-31 0 -52.5 20.5t-21.5 49.5z" />
    <glyph glyph-name="Aring" unicode="&#xc5;" horiz-adv-x="646" 
d="M-19 0q11 17 23.5 39.5t24.5 51.5l14 31l6 14l5 14l38 95l44 112l38 100l48 135q7 21 13 42t6 37q0 12 -5 32l-3 9l-3 8h122l120 -286l33 -78q77 -184 106.5 -244.5t65.5 -111.5h-154q-5 37 -26 90l-14 36l-4 9l-3 6l-3 8l-71 167h-226l-62 -166l-2 -7l-3 -8l-5 -15
l-9 -29q-5 -16 -8 -31.5t-3 -27.5q0 -13 1 -20q3 -8 3 -12h-107zM190 361h194l-103 246zM216 805q0 32 24 55t58 23q33 0 56.5 -23.5t23.5 -56.5q0 -31 -24.5 -54.5t-56.5 -23.5q-33 0 -57 24t-24 56zM251 805q0 -18 13.5 -31.5t32.5 -13.5q20 0 32 14q13 12 13 30t-13 30.5
t-32 12.5q-18 0 -32 -12t-14 -30z" />
    <glyph glyph-name="Ccedilla" unicode="&#xc7;" horiz-adv-x="621" 
d="M567 710l8 -96l-23 16q-14 9 -30.5 17t-52 20.5t-81.5 12.5q-88 0 -145 -64t-64.5 -132t-8.5 -86.5t-1 -34.5q0 -150 63.5 -232t165.5 -82q50 0 91.5 18t88.5 65l20 23l-29 -94q-63 -52 -146 -67l-49 -6l-5 -13l-4 -12l-4 -11q2 -8 4 -10l23 -13l13 -9q17 -15 17 -36
q0 -30 -28 -45.5t-59 -15.5q-14 0 -31 3l-12 2l-10 3l12 1l18 3l7 1q15 4 25.5 11.5t10.5 21.5t-11 22l-20 9l-14 5l35 85l-44 6q-117 25 -186.5 124.5t-69.5 247.5q0 125 66.5 217t144.5 117.5t128 25.5h32q16 -3 23 -4l30 -4l22 -3l25 -4l7 -1l3 -1l17 -2l11 -1h5z" />
    <glyph glyph-name="Eacute" unicode="&#xc9;" horiz-adv-x="516" 
d="M55 0q7 30 9 40t2 38l2 37v9v498v22q0 24 -5 52l-3 15l-2 9h399l11 -70q-26 10 -56 16.5t-65 6.5l-35 2h-130v-273h94h26q30 0 51.5 5t50.5 17v-89q-28 11 -56.5 16t-71.5 5h-93v-304h160q56 0 87.5 4t69.5 16l20 7l-40 -79h-425zM223 747l40 142h114z" />
    <glyph glyph-name="Ntilde" unicode="&#xd1;" horiz-adv-x="698" 
d="M47 720h121l403 -544v394v14v16v29q0 24 -2.5 45.5t-8.5 45.5h82l-5 -23q-3 -18 -5 -34.5t-2 -33.5v-45v-14v-570h-75l-431 580v-431l1 -14v-12v-33l1 -21q0 -19 2.5 -33t9.5 -36h-82q12 44 12 90l1 25v20v14v431v12q0 33 -3.5 61t-7.5 42t-11 25zM219 785q15 90 74 90
q20 0 41 -10l3 -1l36 -20l13 -7q15 -7 31 -7q27 0 55 32l6 8l3 4l-1 -9l-2 -8l-4 -17q-25 -74 -76 -74q-18 0 -32.5 6.5t-21 10t-30.5 19.5l-11 6q-17 6 -28 6q-21 0 -45 -25l-11 -12v8z" />
    <glyph glyph-name="Odieresis" unicode="&#xd6;" horiz-adv-x="774" 
d="M41 361q0 65 18 122t54 106.5t93.5 85t97 42.5t63 8t25.5 1q146 0 243.5 -98.5t97.5 -254.5q0 -142 -75 -246t-157.5 -120.5t-123.5 -16.5q-187 0 -261.5 127t-74.5 244zM171 363q0 -156 62 -241t154 -85t153 85t61 244l-4 62q-9 72 -31.5 123.5t-66.5 91t-114 39.5
q-49 0 -91.5 -23.5t-67 -62.5t-36 -77.5t-15 -75.5t-4 -48t-0.5 -18v-14zM200 836q0 29 21 50t52 21q29 0 51 -21t22 -50q0 -31 -22 -50.5t-52 -19.5t-51 20t-21 50zM422 836q0 29 21 50t53 21q29 0 50.5 -20.5t21.5 -50.5t-21.5 -50t-49.5 -20q-32 0 -53.5 20.5t-21.5 49.5
z" />
    <glyph glyph-name="Udieresis" unicode="&#xdc;" horiz-adv-x="673" 
d="M48 720h134q-5 -27 -7 -45t-2 -48v-13v-32v-14v-365q0 -70 29.5 -104.5t67 -39t54.5 -4.5q16 0 62 8t79.5 50.5t33.5 124.5v329v15v26v18q1 12 -2 45l-9 49h135q-9 -39 -9 -93v-45v-14v-419v-14v-45q0 -28 2.5 -47t9.5 -43h-127v83q-74 -80 -193 -95l-45 -2
q-109 0 -155 47t-46 153v382v14l-1 45q0 30 -2 48.5t-9 44.5zM142 836q0 29 21 50t52 21q29 0 51 -21t22 -50q0 -30 -22 -50t-52 -20t-51 20t-21 50zM365 836q0 29 21 50t52 21q29 0 51 -21t22 -50t-22 -49.5t-50 -20.5q-31 0 -52.5 20.5t-21.5 49.5z" />
    <glyph glyph-name="aacute" unicode="&#xe1;" horiz-adv-x="465" 
d="M407 356v-241v-12l1 -11v-22l2 -26v-9l4 -35h-110l2 67q-18 -26 -52 -52.5t-91 -26.5q-46 0 -81 27q-42 35 -42 88q0 50 25.5 73t44.5 34.5t32 18.5l7 3l58 29l19 10q46 26 60.5 41.5t17.5 41.5l1 10v14l-1 21q0 39 -17.5 59.5t-51.5 20.5q-7 0 -27.5 -3.5t-33 -19
t-19.5 -55.5l-7 -16q-18 -29 -52 -24q-21 2 -33 17t-8 35q7 35 48 63t79 32l47.5 5t19.5 1h11q76 0 111.5 -29t35.5 -80v-29v-20zM306 283q-20 -16 -34.5 -25t-51.5 -30t-57 -45.5t-20 -55.5q0 -34 20 -56t51 -22q11 0 28 5l18 9q46 28 46 87v133zM197 531l40 142h114z" />
    <glyph glyph-name="agrave" unicode="&#xe0;" horiz-adv-x="465" 
d="M407 356v-241v-12l1 -11v-22l2 -26v-9l4 -35h-110l2 67q-18 -26 -52 -52.5t-91 -26.5q-46 0 -81 27q-42 35 -42 88q0 50 25.5 73t44.5 34.5t32 18.5l7 3l58 29l19 10q46 26 60.5 41.5t17.5 41.5l1 10v14l-1 21q0 39 -17.5 59.5t-51.5 20.5q-7 0 -27.5 -3.5t-33 -19
t-19.5 -55.5l-7 -16q-18 -29 -52 -24q-21 2 -33 17t-8 35q7 35 48 63t79 32l47.5 5t19.5 1h11q76 0 111.5 -29t35.5 -80v-29v-20zM306 283q-20 -16 -34.5 -25t-51.5 -30t-57 -45.5t-20 -55.5q0 -34 20 -56t51 -22q11 0 28 5l18 9q46 28 46 87v133zM117 672h114l39 -143z" />
    <glyph glyph-name="acircumflex" unicode="&#xe2;" horiz-adv-x="465" 
d="M407 356v-241v-12l1 -11v-22l2 -26v-9l4 -35h-110l2 67q-18 -26 -52 -52.5t-91 -26.5q-46 0 -81 27q-42 35 -42 88q0 50 25.5 73t44.5 34.5t32 18.5l7 3l58 29l19 10q46 26 60.5 41.5t17.5 41.5l1 10v14l-1 21q0 39 -17.5 59.5t-51.5 20.5q-7 0 -27.5 -3.5t-33 -19
t-19.5 -55.5l-7 -16q-18 -29 -52 -24q-21 2 -33 17t-8 35q7 35 48 63t79 32l47.5 5t19.5 1h11q76 0 111.5 -29t35.5 -80v-29v-20zM306 283q-20 -16 -34.5 -25t-51.5 -30t-57 -45.5t-20 -55.5q0 -34 20 -56t51 -22q11 0 28 5l18 9q46 28 46 87v133zM117 528l75 142h81
l74 -140l-114 69z" />
    <glyph glyph-name="adieresis" unicode="&#xe4;" horiz-adv-x="462" 
d="M407 356v-241v-12l1 -11v-22l2 -26v-9l4 -35h-110l2 67q-18 -26 -52 -52.5t-91 -26.5q-46 0 -81 27q-42 35 -42 88q0 50 25.5 73t44.5 34.5t32 18.5l7 3l58 29l19 10q46 26 60.5 41.5t17.5 41.5l1 10v14l-1 21q0 39 -17.5 59.5t-51.5 20.5q-7 0 -27.5 -3.5t-33 -19
t-19.5 -55.5l-7 -16q-18 -29 -52 -24q-21 2 -33 17t-8 35q7 35 48 63t79 32l47.5 5t19.5 1h11q76 0 111.5 -29t35.5 -80v-29v-20zM306 282q-31 -25 -76 -50t-63.5 -48.5t-18.5 -53.5q0 -32 19 -53t48 -21q16 0 29 5l18 8q44 28 44 84v129zM92 600q0 24 17 41t43 17
q24 0 42.5 -17t18.5 -41t-18 -41.5t-43 -17.5q-26 0 -43 17t-17 42zM280 600q0 25 17.5 41.5t43.5 16.5t43 -17t17 -41q0 -25 -17.5 -42t-42.5 -17t-43 17t-18 42z" />
    <glyph glyph-name="atilde" unicode="&#xe3;" horiz-adv-x="465" 
d="M407 356v-241v-12l1 -11v-22l2 -26v-9l4 -35h-110l2 67q-18 -26 -52 -52.5t-91 -26.5q-46 0 -81 27q-42 35 -42 88q0 50 25.5 73t44.5 34.5t32 18.5l7 3l58 29l19 10q46 26 60.5 41.5t17.5 41.5l1 10v14l-1 21q0 39 -17.5 59.5t-51.5 20.5q-7 0 -27.5 -3.5t-33 -19
t-19.5 -55.5l-7 -16q-18 -29 -52 -24q-21 2 -33 17t-8 35q7 35 48 63t79 32l47.5 5t19.5 1h11q76 0 111.5 -29t35.5 -80v-29v-20zM306 283q-20 -16 -34.5 -25t-51.5 -30t-57 -45.5t-20 -55.5q0 -34 20 -56t51 -22q11 0 28 5l18 9q46 28 46 87v133zM102 569q15 90 74 90
q20 0 41 -10l3 -1l36 -20l13 -7q15 -7 31 -7q27 0 55 32l6 8l3 4l-1 -9l-2 -8l-4 -17q-25 -74 -76 -74q-18 0 -32.5 6.5t-21 10t-30.5 19.5l-11 6q-17 6 -28 6q-21 0 -45 -25l-11 -12v8z" />
    <glyph glyph-name="aring" unicode="&#xe5;" horiz-adv-x="462" 
d="M407 356v-241v-12l1 -11v-22l2 -26v-9l4 -35h-110l2 67q-18 -26 -52 -52.5t-91 -26.5q-46 0 -81 27q-42 35 -42 88q0 50 25.5 73t44.5 34.5t32 18.5l7 3l58 29l19 10q46 26 60.5 41.5t17.5 41.5l1 10v14l-1 21q0 39 -17.5 59.5t-51.5 20.5q-7 0 -27.5 -3.5t-33 -19
t-19.5 -55.5l-7 -16q-18 -29 -52 -24q-21 2 -33 17t-8 35q7 35 48 63t79 32l47.5 5t19.5 1h11q76 0 111.5 -29t35.5 -80v-29v-20zM306 282q-31 -25 -76 -50t-63.5 -48.5t-18.5 -53.5q0 -32 19 -53t48 -21q16 0 29 5l18 8q44 28 44 84v129zM176 617q0 30 22.5 51.5t53.5 21.5
t47 -15.5t22 -30t6 -28.5q0 -31 -22 -52.5t-54 -21.5q-31 0 -53 22t-22 53zM208 617q0 -17 12.5 -29.5t30.5 -12.5q17 0 29.5 12t12.5 29q0 16 -12 28t-30 12t-30.5 -11.5t-12.5 -27.5z" />
    <glyph glyph-name="ccedilla" unicode="&#xe7;" horiz-adv-x="436" 
d="M387 502l2 -74q-30 29 -56.5 33.5t-34.5 4.5h-13q-55 0 -87.5 -40.5t-41.5 -127.5q0 -15 -0.5 -26.5t-0.5 -19.5q0 -7 1 -15.5t5.5 -50t40 -83.5t89.5 -42q30 0 54 9.5t36 16.5t26 19l-19 -64q-39 -33 -91 -45l-24 -4l-7 -15l-4 -11l-4 -11q2 -7 4 -11l21 -13l13 -9
q16 -15 16 -35q0 -30 -26 -46t-56 -16q-13 0 -30 3l-11 2l-9 3l11 2l18 2l6 1q14 4 24.5 12t10.5 22q0 13 -11 21l-19 10l-12 4l32 84q-12 0 -26.5 3.5t-56 19.5t-78 82t-36.5 162q0 116 65.5 184.5t163.5 68.5h16t19 -2l21 -3l15 -2l18 -3l4 -1h4h7h7z" />
    <glyph glyph-name="eacute" unicode="&#xe9;" horiz-adv-x="479" 
d="M394 323h-240l-2 -20q-3 -23 -3 -44q0 -13 1 -26.5t7 -53.5t43 -77t93 -37q45 0 98 27l43 28l6 5l8 7l-18 -66l-9 -8q-51 -47 -93 -56t-69 -9q-92 0 -155.5 64.5t-63.5 168.5q0 114 48 190t102 88t79 12q60 0 106 -34t60 -78t14 -56q0 -25 -23 -25h-7h-25zM158 357h127
q57 0 57 39q0 10 -3 23t-20.5 35t-55.5 22q-40 0 -61.5 -25.5t-31.5 -51.5l-8 -22l-2 -11zM204 531l40 142h114z" />
    <glyph glyph-name="egrave" unicode="&#xe8;" horiz-adv-x="479" 
d="M394 323h-240l-2 -20q-3 -23 -3 -44q0 -13 1 -26.5t7 -53.5t43 -77t93 -37q45 0 98 27l43 28l6 5l8 7l-18 -66l-9 -8q-51 -47 -93 -56t-69 -9q-92 0 -155.5 64.5t-63.5 168.5q0 114 48 190t102 88t79 12q60 0 106 -34t60 -78t14 -56q0 -25 -23 -25h-7h-25zM158 357h127
q57 0 57 39q0 10 -3 23t-20.5 35t-55.5 22q-40 0 -61.5 -25.5t-31.5 -51.5l-8 -22l-2 -11zM124 672h114l39 -143z" />
    <glyph glyph-name="ecircumflex" unicode="&#xea;" horiz-adv-x="479" 
d="M394 323h-240l-2 -20q-3 -23 -3 -44q0 -13 1 -26.5t7 -53.5t43 -77t93 -37q45 0 98 27l43 28l6 5l8 7l-18 -66l-9 -8q-51 -47 -93 -56t-69 -9q-92 0 -155.5 64.5t-63.5 168.5q0 114 48 190t102 88t79 12q60 0 106 -34t60 -78t14 -56q0 -25 -23 -25h-7h-25zM158 357h127
q57 0 57 39q0 10 -3 23t-20.5 35t-55.5 22q-40 0 -61.5 -25.5t-31.5 -51.5l-8 -22l-2 -11zM124 528l75 142h81l74 -140l-114 69z" />
    <glyph glyph-name="edieresis" unicode="&#xeb;" horiz-adv-x="479" 
d="M394 323h-240l-2 -20q-3 -23 -3 -44q0 -13 1 -26.5t7 -53.5t43 -77t93 -37q45 0 98 27l43 28l6 5l8 7l-18 -66l-9 -8q-51 -47 -93 -56t-69 -9q-92 0 -155.5 64.5t-63.5 168.5q0 114 48 190t102 88t79 12q60 0 106 -34t60 -78t14 -56q0 -25 -23 -25h-7h-25zM158 357h127
q57 0 57 39q0 10 -3 23t-20.5 35t-55.5 22q-40 0 -61.5 -25.5t-31.5 -51.5l-8 -22l-2 -11zM84 606q0 24 17.5 41.5t42.5 17.5q26 0 43.5 -17.5t17.5 -41.5t-18 -41t-43 -17q-26 0 -43 17t-17 41zM273 607q0 25 17.5 41.5t43.5 16.5q24 0 42 -17.5t18 -42.5q0 -23 -18 -40
t-42 -17q-26 0 -43.5 16.5t-17.5 42.5z" />
    <glyph glyph-name="iacute" unicode="&#xed;" horiz-adv-x="190" 
d="M38 0l5 34l1 11l1 24l1 24v9v13v275v13l-1 33l-1 32l-5 36h108v-389l-1 -13l1 -33l1 -26l1 -9l6 -34h-117zM60 531l40 142h114z" />
    <glyph glyph-name="igrave" unicode="&#xec;" horiz-adv-x="190" 
d="M38 0l5 34l1 11l1 24l1 24v9v13v275v13l-1 33l-1 32l-5 36h108v-389l-1 -13l1 -33l1 -26l1 -9l6 -34h-117zM-20 672h114l39 -143z" />
    <glyph glyph-name="icircumflex" unicode="&#xee;" horiz-adv-x="190" 
d="M38 0l5 34l1 11l1 24l1 24v9v13v275v13l-1 33l-1 32l-5 36h108v-389l-1 -13l1 -33l1 -26l1 -9l6 -34h-117zM-20 528l75 142h81l74 -140l-114 69z" />
    <glyph glyph-name="idieresis" unicode="&#xef;" horiz-adv-x="190" 
d="M38 0l5 34l1 11l1 24l1 24v9v13v275v13l-1 33l-1 32l-5 36h108v-389l-1 -13l1 -33l1 -26l1 -9l6 -34h-117zM-60 606q0 24 17.5 41.5t42.5 17.5q26 0 43.5 -17.5t17.5 -41.5t-18 -41t-43 -17q-26 0 -43 17t-17 41zM129 607q0 25 17.5 41.5t43.5 16.5q24 0 42 -17.5
t18 -42.5q0 -23 -18 -40t-42 -17q-26 0 -43.5 16.5t-17.5 42.5z" />
    <glyph glyph-name="ntilde" unicode="&#xf1;" horiz-adv-x="524" 
d="M52 0l6 35l1 8v27l1 33l1 12v276v13l-1 33l-1 31v4l-4 32h106v-58l9 9q15 13 29.5 23.5t35 20t44 14.5t44.5 5q59 0 98 -34t44 -87v-100v-10v-95l-1 -39v-38v-8l1 -5v-33l1 -26l1 -9l5 -34h-108v109v85v104l-1 82q-3 31 -27 51.5t-60 20.5q-17 0 -49 -8t-49.5 -40.5
t-17.5 -111.5v-106v-26v-45v-13v-7v-26l1 -25v-10l6 -34h-115zM132 569q15 90 74 90q20 0 41 -10l3 -1l36 -20l13 -7q15 -7 31 -7q27 0 55 32l6 8l3 4l-1 -9l-2 -8l-4 -17q-25 -74 -76 -74q-18 0 -32.5 6.5t-21 10t-30.5 19.5l-11 6q-17 6 -28 6q-21 0 -45 -25l-11 -12v8z
" />
    <glyph glyph-name="oacute" unicode="&#xf3;" horiz-adv-x="557" 
d="M41 221q0 133 63.5 214.5t168.5 81.5q112 0 178 -67t66 -187q0 -22 -7 -86t-73.5 -126.5t-159.5 -62.5q-18 0 -62 6.5t-88.5 47t-65 83t-20.5 96.5zM151 308q-1 -8 -1 -17.5v-14.5q0 -29 6.5 -77t22.5 -83.5t43.5 -60t62.5 -24.5q31 0 57.5 19.5t40 56t17.5 82.5
q0 72 -2.5 109.5t-15.5 74.5t-38 69t-74 32q-56 0 -80 -38.5t-30.5 -70.5t-7.5 -38t-1 -19zM243 531l40 142h114z" />
    <glyph glyph-name="ograve" unicode="&#xf2;" horiz-adv-x="557" 
d="M41 221q0 133 63.5 214.5t168.5 81.5q112 0 178 -67t66 -187q0 -22 -7 -86t-73.5 -126.5t-159.5 -62.5q-18 0 -62 6.5t-88.5 47t-65 83t-20.5 96.5zM151 308q-1 -8 -1 -17.5v-14.5q0 -29 6.5 -77t22.5 -83.5t43.5 -60t62.5 -24.5q31 0 57.5 19.5t40 56t17.5 82.5
q0 72 -2.5 109.5t-15.5 74.5t-38 69t-74 32q-56 0 -80 -38.5t-30.5 -70.5t-7.5 -38t-1 -19zM163 672h114l39 -143z" />
    <glyph glyph-name="ocircumflex" unicode="&#xf4;" horiz-adv-x="557" 
d="M41 221q0 133 63.5 214.5t168.5 81.5q112 0 178 -67t66 -187q0 -22 -7 -86t-73.5 -126.5t-159.5 -62.5q-18 0 -62 6.5t-88.5 47t-65 83t-20.5 96.5zM151 308q-1 -8 -1 -17.5v-14.5q0 -29 6.5 -77t22.5 -83.5t43.5 -60t62.5 -24.5q31 0 57.5 19.5t40 56t17.5 82.5
q0 72 -2.5 109.5t-15.5 74.5t-38 69t-74 32q-56 0 -80 -38.5t-30.5 -70.5t-7.5 -38t-1 -19zM163 528l75 142h81l74 -140l-114 69z" />
    <glyph glyph-name="odieresis" unicode="&#xf6;" horiz-adv-x="561" 
d="M43 221q-1 22 -1 34q0 13 1 20q0 108 68.5 175.5t169.5 67.5q20 0 77 -8.5t109 -73t52 -171.5q0 -24 -7 -88t-73.5 -126.5t-159.5 -62.5q-18 0 -62 6.5t-88.5 47t-65 83t-20.5 96.5zM153 308q-1 -8 -1 -17.5v-14.5q0 -29 6.5 -77t22.5 -83.5t43.5 -60t62.5 -24.5
q31 0 57.5 19.5t40 56t17.5 82.5q0 72 -2.5 109.5t-15.5 74.5t-38 69t-74 32q-56 0 -80 -38.5t-30.5 -70.5t-7.5 -38t-1 -19zM125 600q0 24 17 41t43 17t43.5 -17t17.5 -42q0 -23 -18.5 -40.5t-42.5 -17.5q-26 0 -43 17t-17 42zM314 600q0 25 17.5 41.5t43.5 16.5
q24 0 42 -17t18 -41q0 -25 -18.5 -42t-41.5 -17q-25 0 -43 17t-18 42z" />
    <glyph glyph-name="otilde" unicode="&#xf5;" horiz-adv-x="557" 
d="M41 221q0 133 63.5 214.5t168.5 81.5q112 0 178 -67t66 -187q0 -22 -7 -86t-73.5 -126.5t-159.5 -62.5q-18 0 -62 6.5t-88.5 47t-65 83t-20.5 96.5zM151 308q-1 -8 -1 -17.5v-14.5q0 -29 6.5 -77t22.5 -83.5t43.5 -60t62.5 -24.5q31 0 57.5 19.5t40 56t17.5 82.5
q0 72 -2.5 109.5t-15.5 74.5t-38 69t-74 32q-56 0 -80 -38.5t-30.5 -70.5t-7.5 -38t-1 -19zM148 569q15 90 74 90q20 0 41 -10l3 -1l36 -20l13 -7q15 -7 31 -7q27 0 55 32l6 8l3 4l-1 -9l-2 -8l-4 -17q-25 -74 -76 -74q-18 0 -32.5 6.5t-21 10t-30.5 19.5l-11 6q-17 6 -28 6
q-21 0 -45 -25l-11 -12v8z" />
    <glyph glyph-name="uacute" unicode="&#xfa;" horiz-adv-x="528" 
d="M53 504h108v-316v-33q0 -48 23 -77t63 -29q23 0 51 11l21 11q27 17 37.5 35t10.5 50v36v197l-1 12v13l-1 20v28v7l-3 35h105v-389v-8v-5l1 -11v-22l1 -24l1 -11l5 -34h-108v64q-26 -34 -60 -50t-58 -21t-46 -5q-57 0 -96.5 30t-44.5 74l-2 41l1 54v202v12l-1 34l-1 23
l-1 11zM229 531l40 142h114z" />
    <glyph glyph-name="ugrave" unicode="&#xf9;" horiz-adv-x="528" 
d="M53 504h108v-316v-33q0 -48 23 -77t63 -29q23 0 51 11l21 11q27 17 37.5 35t10.5 50v36v197l-1 12v13l-1 20v28v7l-3 35h105v-389v-8v-5l1 -11v-22l1 -24l1 -11l5 -34h-108v64q-26 -34 -60 -50t-58 -21t-46 -5q-57 0 -96.5 30t-44.5 74l-2 41l1 54v202v12l-1 34l-1 23
l-1 11zM149 672h114l39 -143z" />
    <glyph glyph-name="ucircumflex" unicode="&#xfb;" horiz-adv-x="528" 
d="M53 504h108v-316v-33q0 -48 23 -77t63 -29q23 0 51 11l21 11q27 17 37.5 35t10.5 50v36v197l-1 12v13l-1 20v28v7l-3 35h105v-389v-8v-5l1 -11v-22l1 -24l1 -11l5 -34h-108v64q-26 -34 -60 -50t-58 -21t-46 -5q-57 0 -96.5 30t-44.5 74l-2 41l1 54v202v12l-1 34l-1 23
l-1 11zM149 528l75 142h81l74 -140l-114 69z" />
    <glyph glyph-name="udieresis" unicode="&#xfc;" horiz-adv-x="517" 
d="M47 504h108v-316v-33q0 -48 23 -77t63 -29q23 0 51 11l21 11q27 17 37.5 35t10.5 50v36v197l-1 12v13l-1 20v28v7l-3 35h105v-389v-8v-5l1 -11v-22l1 -24l1 -11l5 -34h-108v64q-26 -34 -60 -50t-58 -21t-46 -5q-57 0 -96.5 30t-44.5 74l-2 41l1 54v202v12l-1 34l-1 23
l-1 11zM100 600q0 24 17 41t43 17q25 0 43 -16.5t18 -41.5t-18.5 -42t-42.5 -17q-26 0 -43 17t-17 42zM289 600q0 25 17.5 41.5t43.5 16.5q24 0 42 -17t18 -41q0 -25 -18.5 -42t-41.5 -17q-25 0 -43 17t-18 42z" />
    <glyph glyph-name="dagger" unicode="&#x2020;" horiz-adv-x="607" 
d="M22 502q25 -6 44.5 -8t57.5 -2h126v122v57q0 10 -1 19t-7 31l123 1q-2 -9 -5 -25.5t-3 -24.5v-49l-1 -131h134q56 0 95 13l-1 -128l-22 6q-13 3 -28.5 4t-46.5 1l-129 -1v-490v-42l4 -32l4 -24l-128 -1q10 40 10 97v493l-120 -1q-59 0 -104 -8z" />
    <glyph glyph-name="degree" unicode="&#xb0;" horiz-adv-x="364" 
d="M47 599q0 57 39 96t96 39t96 -39t39 -96q0 -56 -39.5 -95.5t-95.5 -39.5q-57 0 -96 39t-39 96zM91 599q0 -38 26 -64t65 -26q38 0 64.5 26.5t26.5 63.5t-26.5 64t-64.5 27t-64.5 -26.5t-26.5 -64.5z" />
    <glyph glyph-name="cent" unicode="&#xa2;" horiz-adv-x="430" 
d="M223 508v73h51v-68q13 0 28 -1.5t38 -5.5l19 -4l6 -1h8h6l5 1l2 -74q-30 29 -56.5 33.5t-34.5 4.5h-13q-55 0 -87.5 -40.5t-41.5 -127.5q0 -15 -0.5 -26.5t-0.5 -19.5q0 -7 1 -15.5t5.5 -50t40 -83.5t89.5 -42q30 0 54 9.5t36 16.5t26 19l-19 -64l-9 -7q-48 -36 -102 -43
v-76h-51v78q-83 11 -133 82t-50 183q0 103 54 171.5t129 77.5z" />
    <glyph glyph-name="sterling" unicode="&#xa3;" horiz-adv-x="537" 
d="M28 0l15 11q64 50 90 90t26 91q0 28 -8 70l-7 27l-6 27l-5 18h-89l16 51h61l-4 11l-6 18l-11 42q-9 39 -9 73q0 94 57.5 148.5t158.5 54.5q10 0 19.5 -0.5t40.5 -4.5l52 -10l9 -2l5 -1l11 -94l-4 4l-11 10q-31 28 -58 39t-55 11q-49 0 -80.5 -31.5t-31.5 -84.5
q0 -20 3 -44.5t12 -61.5t25 -77h166l-19 -52h-135l6 -27q12 -47 12 -80q0 -37 -14.5 -66t-50.5 -63l-15 -13l25 -1l26 -2l32 -1q105 0 143 12t90 64l10 9l-53 -165h-439z" />
    <glyph glyph-name="section" unicode="&#xa7;" horiz-adv-x="588" 
d="M144 424l-13 11q-46 46 -46 112q0 33 13.5 65.5t51 69.5t87 42t58 5h12.5q95 0 158.5 -58.5t63.5 -142.5l-99 2q0 17 -2 25q-12 81 -60.5 94t-63.5 13q-17 0 -35 -6l-19 -7q-57 -30 -57 -91q0 -41 21.5 -62.5t33.5 -27.5l5 -2l17 -7l178 -65q92 -34 99 -85.5t7 -65.5
q0 -45 -22 -82t-62 -58l-20 -9l14 -15q42 -47 42 -107q0 -23 -13 -66.5t-71.5 -80t-141.5 -36.5q-100 0 -160.5 54.5t-60.5 132.5q0 13 1 20l98 -3q-1 -6 -1 -17q0 -43 28.5 -76.5t59.5 -40t44 -6.5q47 0 77 30t30 77q0 10 -3 33t-23.5 39t-27.5 19t-24 9l-181 63
q-105 37 -105 154q0 42 25 79t68 59zM227 376q-37 5 -62.5 -23.5t-25.5 -75.5q0 -29 22.5 -54.5t59.5 -36.5l143 -46q35 0 61 23t26 61q0 74 -70 98z" />
    <glyph glyph-name="bullet" unicode="&#x2022;" horiz-adv-x="364" 
d="M47 360q0 57 39 96t96 39t96 -39t39 -96t-39 -96t-96 -39t-96 39t-39 96z" />
    <glyph glyph-name="paragraph" unicode="&#xb6;" horiz-adv-x="534" 
d="M214 720h309v-27h-299q-61 0 -105.5 -48.5t-44.5 -121.5q0 -71 45 -118t106 -47h58v266h54v-624h-109v13h7h9l6 1l8 1q25 3 25 32v283h-69q-84 0 -143.5 57.5t-59.5 137.5q0 79 59.5 137t143.5 58zM404 0v624h55v-577q0 -29 24 -32l7 -1l7 -1h9h6v-13h-108z" />
    <glyph glyph-name="germandbls" unicode="&#xdf;" horiz-adv-x="601" 
d="M46 0l7 32q4 21 4 45v447q0 88 50.5 142.5t103 61t60 7t17.5 0.5q28 0 71 -9.5t73.5 -40t30.5 -72.5q0 -39 -29 -83l-13 -18l-2 -3l-21 -27l-5 -6l-18 -24q-24 -33 -24 -53q0 -27 54 -63l16 -11l50 -30q17 -10 33.5 -21t39.5 -31t23 -75q0 -38 -21 -73.5t-77 -69
t-181 -33.5l-21 1v91q17 -18 39.5 -25.5t55.5 -7.5q20 0 35 5.5t42.5 27t27.5 54.5q0 42 -66 87l-23 14q-37 23 -51.5 32.5t-29.5 20.5q-49 43 -49 69q0 22 27 58l28 38l22 29l7 10l10 16q16 27 23 45t7 31q0 45 -25.5 72.5t-68.5 27.5q-15 0 -41 -5t-53 -44t-27 -100v-474
q0 -29 6 -53l4 -12h-121z" />
    <glyph glyph-name="registered" unicode="&#xae;" horiz-adv-x="768" 
d="M11 361q0 155 81 236t150.5 109t141.5 28q74 0 141 -27t121.5 -81t83 -123t28.5 -142q0 -75 -27 -141.5t-81.5 -121t-123.5 -83t-142 -28.5q-74 0 -141.5 27.5t-149.5 109.5t-82 237zM61 361q0 -65 25 -125.5t71 -107t105 -71t123 -24.5q62 0 121.5 24.5t105.5 71
t70.5 106.5t24.5 125q0 64 -24 124.5t-70.5 107.5t-105.5 71.5t-123 24.5q-62 0 -121 -24t-105.5 -71t-71.5 -106.5t-25 -125.5zM201 568v9h206q30 0 55 -6.5t44.5 -20t31.5 -35.5t12 -46q0 -38 -27 -65.5t-74 -42.5l-19 -4l99 -162l16 -16l7 -6l6 -4l6 -3l6 -3l11 -4l4 -1
h7h4l3 -9h-132l-108 193l-28 1v-144q0 -28 20 -37l5 -2h5l9 -1l10 -1h6v-9h-185v9h6l10 1l8 1h6l5 2q21 8 21 37v328q0 28 -21 37l-6 1l-4 1l-9 1h-11zM331 374l16 -2q102 0 114 41t12 54q0 38 -28 62t-76 24q-20 0 -38 -5v-174z" />
    <glyph glyph-name="copyright" unicode="&#xa9;" horiz-adv-x="840" 
d="M47 361q0 155 81 236t150.5 109t141.5 28q74 0 141 -27t121.5 -81t83 -123t28.5 -142q0 -75 -27 -141.5t-81.5 -121t-123.5 -83t-142 -28.5q-74 0 -141.5 27.5t-149.5 109.5t-82 237zM97 361q0 -65 25 -125.5t71 -107t105 -71t123 -24.5q62 0 121.5 24.5t105.5 71
t70.5 106.5t24.5 125q0 64 -24 124.5t-70.5 107.5t-105.5 71.5t-123 24.5q-62 0 -121 -24t-105.5 -71t-71.5 -106.5t-25 -125.5zM568 566l10 1l8 -137h-10l-5 24q-13 45 -48.5 71.5t-81.5 26.5q-14 0 -22 -1t-42 -11t-65 -60.5t-31 -126.5q0 -87 44.5 -140.5t113.5 -53.5
q44 0 79 17.5t63 55.5l10 16l8 -4l-13 -22q-57 -88 -166 -88q-25 0 -76.5 11.5t-97 69t-45.5 133.5q0 32 14 84.5t73.5 95.5t137.5 43q47 0 92 -16l16 -5l7 -2q20 -5 26 14z" />
    <glyph glyph-name="trademark" unicode="&#x2122;" horiz-adv-x="885" 
d="M47 626l6 94h312l6 -94h-8l-2 15q-8 34 -23.5 45.5t-55.5 11.5h-41v-297q0 -24 17 -30l5 -2h4l7 -1l7 -1h5v-7h-155v7h5l8 1l6 1h5l5 2q17 6 17 30v297l-40 -1q-38 0 -54.5 -11.5t-24.5 -43.5l-3 -16h-8zM373 360v7h5l8 1l6 1h5l5 2q17 6 17 30v277q0 25 -17 31l-4 1
l-5 1l-6 1h-9h-4v8h110l122 -271l123 271h109v-8h-5h-8l-8 -1l-4 -1l-4 -1q-17 -7 -17 -31v-277q0 -24 17 -30l5 -2h4l7 -1l7 -1h5v-7h-155v7h5l8 1l6 1h5l5 2q17 6 17 30v259l-135 -300h-17l-135 298l1 -257q0 -24 16 -30l5 -2h4l7 -1l8 -1h5v-7h-114z" />
    <glyph glyph-name="acute" unicode="&#xb4;" horiz-adv-x="201" 
d="M65 531l40 142h114z" />
    <glyph glyph-name="dieresis" unicode="&#xa8;" horiz-adv-x="314" 
d="M2 606q0 24 17.5 41.5t42.5 17.5q26 0 43.5 -17.5t17.5 -41.5t-18 -41t-43 -17q-26 0 -43 17t-17 41zM191 607q0 25 17.5 41.5t43.5 16.5q24 0 42 -17.5t18 -42.5q0 -23 -18 -40t-42 -17q-26 0 -43.5 16.5t-17.5 42.5z" />
    <glyph glyph-name="AE" unicode="&#xc6;" horiz-adv-x="949" 
d="M-19 0l13 13l13 12l17 18l60 72l375 515q16 21 25 56l3 14l1 10l1 10h393l11 -69q-34 11 -63 17t-66 6l-30 1h-126v-273h84q31 0 47 2t58 12l30 7v-89q-24 10 -50 16t-59 6h-26h-86v-304h138q59 0 147 16l35 7l21 4l-42 -79h-430q7 19 12.5 40t5.5 45l1 20v177h-226
l-109 -162l-15 -23q-14 -24 -26 -50t-19 -47h-118zM304 331h188v273z" />
    <glyph glyph-name="Oslash" unicode="&#xd8;" horiz-adv-x="760" 
d="M606 640l75 88l29 -26l-75 -86q45 -52 68.5 -112.5t23.5 -130.5q0 -143 -75.5 -246.5t-156.5 -120t-122 -16.5q-61 0 -114.5 19t-98.5 56l-75 -87l-28 24l74 89q-94 96 -94 252v24.5t10 86t71 140.5t117.5 94t97.5 33t63 4q127 0 210 -85zM220 134q24 -41 60.5 -65
t81.5 -24q6 -1 19 -1q90 0 151.5 79.5t61.5 223.5q0 28 -4.5 77t-27.5 111zM546 576q-14 29 -43.5 52t-64 34.5t-62.5 11.5q-30 0 -57 -8.5t-65 -34.5t-62.5 -99t-24.5 -200q0 -72 36 -157z" />
    <glyph glyph-name="yen" unicode="&#xa5;" horiz-adv-x="661" 
d="M39 720h151l190 -347l116 256q16 33 16 70v11v10h110l-9 -13l-7 -11l-8 -11l-12 -20l-26 -48l-120 -251h173q-3 -10 -4 -15t-1 -15q0 -13 2 -19.5t3 -9.5h-193q-4 -8 -4 -15l-1 -5h198q-3 -10 -4 -15t-1 -15q0 -13 2 -19.5t3 -9.5h-203v-125v-7l2 -26q4 -45 11 -70h-145
l11 41q6 30 6 54l1 133h-212l3 14q2 12 2 17q0 13 -5 28h213l-6 20h-207q3 10 4 15t1 15q0 13 -2 19.5t-3 9.5h175l-155 261l-30 46l-5 7l-16 20l-4 5z" />
    <glyph glyph-name="ordfeminine" unicode="&#xaa;" horiz-adv-x="450" 
d="M47 281v53h353v-53h-353zM256 589v59q0 31 -9 44t-23.5 15.5t-18.5 2.5h-6q-25 0 -41.5 -12.5t-14.5 -27.5l1 -3l2 -6l2 -6l3 -6q1 -2 1 -17q0 -13 -12.5 -22.5t-29.5 -9.5t-28.5 11.5t-11.5 29.5q0 5 15 48t151 43q56 0 81 -23.5t25 -68.5v-189v-10v-7q3 -29 32 -23
q8 2 16 10l4 4l3 5l6 -8q-6 -12 -18 -24l-13 -11q-13 -9 -25 -13t-25 -4q-45 0 -60 42l-4 15l-7 -8q-50 -50 -105 -50q-15 0 -38 6.5t-40 28.5t-17 49q0 24 12.5 45.5t35.5 36.5t67 29l19 6l15 4l11 3l21 6zM257 568l-9 -4l-10 -3l-13 -5l-12 -5l-9 -4l-15 -6
q-26 -12 -40.5 -31.5t-14.5 -39.5q0 -21 15.5 -39.5t40.5 -18.5q30 0 60 30l7 8v118z" />
    <glyph glyph-name="ordmasculine" unicode="&#xba;" horiz-adv-x="448" 
d="M48 281v53h352v-53h-352zM47 552q0 73 39 121t82 55t60 7q76 0 118.5 -42.5t47.5 -76t6.5 -43.5t1.5 -23q0 -81 -48 -131t-126 -50q-72 0 -118.5 38t-58.5 108q-4 16 -4 37zM138 552l2 -29q7 -46 20 -73.5t31.5 -40.5t38.5 -13q42 0 63 41q9 21 13.5 39.5t4.5 47.5v34
q-3 16 -5.5 36.5t-12 46t-26 47t-46.5 21.5q-29 0 -47.5 -21.5t-27 -46.5t-8.5 -59v-30z" />
    <glyph glyph-name="ae" unicode="&#xe6;" horiz-adv-x="739" 
d="M381 453q36 46 75 53t48 8.5t20 1.5q56 0 101 -31t59.5 -69t16 -48t1.5 -14.5v-8.5q0 -21 -21 -21l-25 -1h-13h-235q-4 -28 -4 -62v-23q2 -11 5.5 -50.5t42.5 -81.5t98 -42q40 0 69.5 13.5t38 19t31.5 23.5l14 11l-19 -67l-9 -8l-9 -8l-25 -18q-61 -38 -124 -38
q-54 0 -100.5 26.5t-78.5 77.5l-7 11q-15 -27 -44 -56t-63 -45t-69 -16q-31 0 -57 13.5t-42 41.5t-16 58q0 35 17.5 61t37.5 39.5t89 47.5l19 10q65 34 80 53t15 64q0 52 -16.5 76.5t-51.5 24.5q-15 0 -36.5 -4.5t-30.5 -19t-10.5 -21.5t-4 -23.5t-7 -24.5t-13.5 -16l-19 -9
q-25 -4 -42 10t-17 36q0 34 40 63t82.5 36t52 7h14.5q18 0 28 -1l28 -4q39 -8 58 -20.5t28 -34.5zM298 280q-9 -8 -20 -16t-30 -18l-32 -18l-8 -5q-38 -22 -54.5 -42t-18.5 -45q0 -39 19 -63t50 -24q11 0 32 5.5t41 28.5t20 53l1 12v13v119zM412 355h126l28 2q34 5 34 40
q0 11 -5.5 26t-24.5 34.5t-52 19.5q-50 0 -73 -39.5t-31 -70.5z" />
    <glyph glyph-name="oslash" unicode="&#xf8;" horiz-adv-x="561" 
d="M431 467l50 65l22 -18l-49 -65q32 -36 48.5 -80.5t16.5 -103.5q0 -24 -6.5 -80t-56.5 -115.5t-101 -70.5t-77 -11q-83 0 -145 51l-50 -61l-24 18l50 64q-35 38 -50.5 91t-15.5 125q0 90 50.5 152.5t108 76t86.5 13.5q81 0 143 -51zM187 107q4 -10 13.5 -22.5t31.5 -31
t62 -18.5q59 0 79 44t25.5 69t5.5 68q0 48 -4 81t-16 66zM373 397l-14 22q-19 25 -43 37.5t-50 12.5q-47 0 -65 -26t-25 -43t-13 -38.5t-8 -41t-2 -40.5q0 -55 16 -116l7 -25z" />
    <glyph glyph-name="questiondown" unicode="&#xbf;" horiz-adv-x="385" 
d="M219 526h62v-38l1 -21l2 -53l-1 -19q-5 -27 -28 -60l-33 -43l-14 -21q-28 -40 -38.5 -60t-13 -32.5t-2.5 -28.5q0 -41 25.5 -66.5t69.5 -25.5q7 0 17 1.5t16 2.5t18 5.5t26 11t29 18.5l13 11v-72l-9 -6l-9 -5l-19 -10q-54 -25 -107 -25q-87 0 -138 44t-51 113
q0 15 3.5 35.5t14.5 40.5t39 51l55 56l14 15q39 46 48 71t9 90zM171 651l79 81l78 -81l-79 -80z" />
    <glyph glyph-name="exclamdown" unicode="&#xa1;" horiz-adv-x="265" 
d="M66 0l35 521h61l33 -521h-129zM53 653l80 81l79 -80l-80 -80z" />
    <glyph glyph-name="logicalnot" unicode="&#xac;" horiz-adv-x="580" 
d="M47 360v76h486v-220h-63v144h-423z" />
    <glyph glyph-name="florin" unicode="&#x192;" horiz-adv-x="502" 
d="M-72 -186l36 50l6 -3l10 -7q22 -13 40 -13q7 1 11 1q33 3 48.5 20.5t28.5 66.5l4 21l62 510h-54l6 44h53l10 84q9 74 55 119t119 45q9 1 25 1q51 0 87 -21l-36 -51l-6 4l-10 6q-22 14 -40 14q-7 -1 -11 -1q-33 -3 -49 -21t-28 -66l-4 -21l-11 -92h100l-6 -44h-100
l-60 -502q-9 -72 -54 -115t-120 -50q-37 0 -63.5 4.5t-48.5 16.5z" />
    <glyph glyph-name="guillemotleft" unicode="&#xab;" horiz-adv-x="429" 
d="M39 252l195 266l-96 -266l96 -266zM192 252l195 266l-96 -266l96 -266z" />
    <glyph glyph-name="guillemotright" unicode="&#xbb;" horiz-adv-x="429" 
d="M42 -14l96 266l-96 266l195 -266zM195 -14l96 266l-96 266l195 -266z" />
    <glyph glyph-name="ellipsis" unicode="&#x2026;" horiz-adv-x="620" 
d="M40 53q0 27 18 45t45 18t45 -18t18 -45t-18 -45t-45 -18t-45 18t-18 45zM247 53q0 27 18 45t45 18t45 -18t18 -45t-18 -45t-45 -18t-45 18t-18 45zM454 53q0 27 18 45t45 18t45 -18t18 -45t-18 -45t-45 -18t-45 18t-18 45z" />
    <glyph glyph-name="nonbreakingspace" unicode="&#xa0;" horiz-adv-x="500" 
 />
    <glyph glyph-name="Agrave" unicode="&#xc0;" horiz-adv-x="651" 
d="M-16 0q11 17 23.5 39.5t24.5 51.5l14 31l6 14l5 14l38 95l44 112l38 100l48 135q7 21 13 42t6 37q0 12 -5 32l-3 9l-3 8h122l120 -286l33 -78q77 -184 106.5 -244.5t65.5 -111.5h-154q-5 37 -26 90l-14 36l-4 9l-3 6l-3 8l-71 167h-226l-62 -166l-2 -7l-3 -8l-5 -15
l-9 -29q-5 -16 -8 -31.5t-3 -27.5q0 -13 1 -20q3 -8 3 -12h-107zM193 361h194l-103 246zM210 888h114l39 -143z" />
    <glyph glyph-name="Atilde" unicode="&#xc3;" horiz-adv-x="651" 
d="M-16 0q11 17 23.5 39.5t24.5 51.5l14 31l6 14l5 14l38 95l44 112l38 100l48 135q7 21 13 42t6 37q0 12 -5 32l-3 9l-3 8h122l120 -286l33 -78q77 -184 106.5 -244.5t65.5 -111.5h-154q-5 37 -26 90l-14 36l-4 9l-3 6l-3 8l-71 167h-226l-62 -166l-2 -7l-3 -8l-5 -15
l-9 -29q-5 -16 -8 -31.5t-3 -27.5q0 -13 1 -20q3 -8 3 -12h-107zM193 361h194l-103 246zM195 785q15 90 74 90q20 0 41 -10l3 -1l36 -20l13 -7q15 -7 31 -7q27 0 55 32l6 8l3 4l-1 -9l-2 -8l-4 -17q-25 -74 -76 -74q-18 0 -32.5 6.5t-21 10t-30.5 19.5l-11 6q-17 6 -28 6
q-21 0 -45 -25l-11 -12v8z" />
    <glyph glyph-name="Otilde" unicode="&#xd5;" horiz-adv-x="778" 
d="M43 361q0 65 18 122t54 106.5t93.5 85t97 42.5t63 8t25.5 1q146 0 243.5 -98.5t97.5 -254.5q0 -142 -75 -246t-157.5 -120.5t-123.5 -16.5q-187 0 -261.5 127t-74.5 244zM173 363q0 -156 62 -241t154 -85t153 85t61 244l-4 62q-9 72 -31.5 123.5t-66.5 91t-114 39.5
q-49 0 -91.5 -23.5t-67 -62.5t-36 -77.5t-15 -75.5t-4 -48t-0.5 -18v-14zM259 785q15 90 74 90q20 0 41 -10l3 -1l36 -20l13 -7q15 -7 31 -7q27 0 55 32l6 8l3 4l-1 -9l-2 -8l-4 -17q-25 -74 -76 -74q-18 0 -32.5 6.5t-21 10t-30.5 19.5l-11 6q-17 6 -28 6q-21 0 -45 -25
l-11 -12v8z" />
    <glyph glyph-name="OE" unicode="&#x152;" horiz-adv-x="953" 
d="M521 720h368l12 -68l-13 4l-16 3l-31 6q-51 10 -95 10h-130v-273h94q27 0 48.5 3t56.5 13l15 4l9 2v-88l-13 4l-13 3q-16 5 -38 8.5t-42 3.5l-29 1h-88v-304h150q65 0 144 16l26 6l15 3l-36 -77h-383l-68 -5q-201 0 -312 91.5t-111 271.5q0 74 21.5 135.5t71 120
t125 85.5t190.5 27zM502 571q0 17 -4 42t-23 44t-47.5 23.5t-37.5 4.5q-57 0 -108.5 -33t-82 -104t-30.5 -171v-28.5t6.5 -72.5t37 -120t79.5 -89.5t97 -30.5q43 0 73.5 22.5t35 51t4.5 53.5v408z" />
    <glyph glyph-name="oe" unicode="&#x153;" horiz-adv-x="848" 
d="M466 425q41 71 92.5 80.5t74.5 9.5q60 0 105.5 -33t60 -76.5t14.5 -59.5q0 -23 -24 -23l-30 -1h-242l-2 -21q0 -31 0.5 -61t7.5 -69.5t44 -73.5t90 -34q49 0 87.5 21.5t56.5 38.5l5 4l6 6l-18 -67l-7 -7l-9 -8q-66 -60 -147 -60q-79 0 -143 58l-18 19l-6 8l-6 9
q-26 -45 -73 -71t-107 -26q-19 0 -68 7.5t-91 52.5t-59 86t-17 94q0 115 50 190.5t110.5 86.5t82.5 11q52 0 89.5 -18t58 -35.5t32.5 -37.5zM152 240l3 -25q9 -66 24.5 -102.5t44 -59.5t62.5 -23q31 0 57.5 19.5t38.5 50t17 57t5 62.5q0 75 -13 128.5t-41.5 90t-77.5 36.5
t-74.5 -33t-36 -72t-10.5 -97zM520 354h124l23 1q43 0 43 38q0 4 -1.5 11t-2.5 11l-5 14q-23 46 -75 46q-31 0 -54.5 -19t-41.5 -64l-5 -17l-3 -10z" />
    <glyph glyph-name="endash" unicode="&#x2013;" 
d="M36 315v90h505v-90h-505z" />
    <glyph glyph-name="emdash" unicode="&#x2014;" horiz-adv-x="490" 
d="M32 240v90h426v-90h-426z" />
    <glyph glyph-name="quotedblleft" unicode="&#x201c;" horiz-adv-x="390" 
d="M15 542q9 51 42 93.5t98 82.5l33 17l-27 -46q-31 -52 -31 -80q0 -16 9 -31.5t16 -22.5t20 -13l-79 -80zM202 542q9 50 43 93.5t98 82.5l33 17l-28 -46q-31 -55 -31 -79q0 -17 11.5 -37t33.5 -31l-79 -80z" />
    <glyph glyph-name="quotedblright" unicode="&#x201d;" horiz-adv-x="390" 
d="M14 462l27 47q31 52 31 80q0 16 -11.5 36.5t-32.5 30.5l78 79l81 -79q-8 -50 -42 -93.5t-98 -82.5zM201 462l28 47q31 53 31 79q0 17 -11.5 37t-33.5 31l79 79l81 -79q-9 -50 -43 -93.5t-98 -82.5z" />
    <glyph glyph-name="quoteleft" unicode="&#x2018;" horiz-adv-x="202" 
d="M15 542q9 51 42 93.5t98 82.5l33 17l-27 -46q-31 -52 -31 -80q0 -16 9 -31.5t16 -22.5t20 -13l-79 -80z" />
    <glyph glyph-name="quoteright" unicode="&#x2019;" horiz-adv-x="202" 
d="M14 462l27 47q31 52 31 80q0 16 -11.5 36.5t-32.5 30.5l78 79l81 -79q-8 -50 -42 -93.5t-98 -82.5z" />
    <glyph glyph-name="ydieresis" unicode="&#xff;" horiz-adv-x="455" 
d="M179 80l-150 354q-12 27 -22 42t-25 28h152l-1 -10q0 -15 2 -27t5 -21l116 -295l116 277q10 24 10 45q0 18 -5 31h93q-11 -11 -18 -21.5t-19 -37.5l-215 -485q-39 -89 -91 -132.5t-111 -43.5q-9 1 -13 1q-44 4 -56 16.5t-12 29.5q0 21 15.5 33.5t34.5 12.5q6 0 24 -4
l9 -3l14 -5l17 -2q37 -3 70.5 26.5t51.5 76.5t18 69q0 21 -10 45zM72 606q0 24 17.5 41.5t42.5 17.5q26 0 43.5 -17.5t17.5 -41.5t-18 -41t-43 -17q-26 0 -43 17t-17 41zM261 607q0 25 17.5 41.5t43.5 16.5q24 0 42 -17.5t18 -42.5q0 -23 -18 -40t-42 -17q-26 0 -43.5 16.5
t-17.5 42.5z" />
    <glyph glyph-name="Ydieresis" unicode="&#x178;" horiz-adv-x="551" 
d="M-22 720h151l190 -347l116 256q16 33 16 70v11v10h110l-9 -13l-7 -11l-9 -13l-11 -18l-26 -48l-123 -246l-3 -7l-9 -18q-14 -33 -14 -56l-1 -20v-15v-152v-7l2 -26q4 -45 11 -70h-145q6 15 11.5 44.5t5.5 50.5v203l-191 329q-7 12 -16 25.5t-14 20.5l-5 7l-16 20l-4 5z
M120 822q0 24 17.5 41.5t42.5 17.5q26 0 43.5 -17.5t17.5 -41.5t-18 -41t-43 -17q-26 0 -43 17t-17 41zM309 823q0 25 17.5 41.5t43.5 16.5q24 0 42 -17.5t18 -42.5q0 -23 -18 -40t-42 -17q-26 0 -43.5 16.5t-17.5 42.5z" />
    <glyph glyph-name="fraction" unicode="&#x2215;" horiz-adv-x="244" 
d="M-84 0l366 720h61l-367 -720h-60z" />
    <glyph glyph-name="currency" unicode="&#xa4;" horiz-adv-x="458" 
d="M47 213l62 61q-29 40 -29 88q0 46 28 86l-60 58q12 18 31 35l62 -62q38 29 88 29q49 0 87 -28l61 62q8 -6 14.5 -12t12.5 -14l7 -10l-62 -58q28 -38 28 -87q0 -48 -29 -88l62 -62l-7 -8l-8 -7l-19 -17l-60 62q-38 -29 -87 -29t-87 29l-63 -61q-9 7 -16.5 14.5t-15.5 18.5
zM129 360q0 -41 29 -70t71 -29q41 0 70 28.5t29 70.5q0 41 -29 70t-70 29t-70.5 -28.5t-29.5 -70.5z" />
    <glyph glyph-name="guilsinglleft" unicode="&#x2039;" horiz-adv-x="276" 
d="M39 252l195 266l-96 -266l96 -266z" />
    <glyph glyph-name="guilsinglright" unicode="&#x203a;" horiz-adv-x="276" 
d="M42 -14l96 266l-96 266l195 -266z" />
    <glyph glyph-name="fi" unicode="&#xf001;" 
d="M75 216l146 143l-144 147l69 68l144 -147l146 144l66 -67l-146 -144l143 -146l-68 -68l-144 146l-146 -143z" />
    <glyph glyph-name="fl" unicode="&#xf002;" horiz-adv-x="321" 
d="M73 703l45 3q62 8 118 31v-604v-14v-14v-25l1 -19q1 -15 4 -30.5t7 -30.5h-138q5 18 8 37.5t3 42.5v20v19v14v312l1 60v17v54q0 54 -8.5 78.5t-30.5 41.5l-7 5z" />
    <glyph glyph-name="daggerdbl" unicode="&#x2021;" horiz-adv-x="617" 
d="M27 316q23 -6 44 -8t59 -2h125l-1 144l-121 -1q-22 0 -41.5 -0.5t-62.5 -6.5l-2 112q25 -6 44.5 -8t57.5 -2h126v116v55q0 10 -1 18.5t-7 28.5l123 1q-3 -10 -5.5 -24.5t-2.5 -23.5v-47l-1 -124h134q56 0 95 13l-1 -118q-21 7 -39.5 9t-57.5 2h-130l-1 -144h134
q56 0 95 13l-1 -118l-22 6q-13 3 -28 4t-47 1h-129v-319v-40l1 -7q0 -12 3 -26t4 -21l-128 -1q6 20 8 39.5t2 53.5v321h-120q-26 0 -44.5 -1t-59.5 -7z" />
    <glyph glyph-name="periodcentered" unicode="&#xb7;" horiz-adv-x="218" 
d="M30 250l79 80l79 -80l-79 -80z" />
    <glyph glyph-name="periodcentered" unicode="&#x2219;" horiz-adv-x="218" 
d="M30 250l79 80l79 -80l-79 -80z" />
    <glyph glyph-name="quotesinglbase" unicode="&#x201a;" horiz-adv-x="200" 
d="M12 -128l27 46q31 52 31 80q0 16 -11.5 36.5t-32.5 30.5l78 79l81 -79q-9 -50 -42 -93.5t-98 -82.5z" />
    <glyph glyph-name="quotedblbase" unicode="&#x201e;" horiz-adv-x="388" 
d="M12 -128l27 46q31 52 31 80q0 16 -11.5 36.5t-32.5 30.5l78 79l81 -79q-9 -50 -42 -93.5t-98 -82.5zM200 -128l27 46q31 55 31 79q0 17 -11.5 37t-33.5 31l79 79l81 -79q-9 -50 -42 -93.5t-99 -82.5z" />
    <glyph glyph-name="perthousand" unicode="&#x2030;" horiz-adv-x="1119" 
d="M45 521l1 35q0 92 34.5 134.5t103.5 42.5h15q11 -2 42.5 -5t61.5 -43.5t30 -127.5v-72q0 -86 -29.5 -127t-64 -45t-42 -4.5t-12.5 -0.5q-68 0 -103.5 43t-35.5 134zM136 521l1 -42q0 -72 12.5 -100t40.5 -28q22 0 36.5 20t14.5 60q0 169 -8.5 214t-42.5 45
q-28 0 -40.5 -26.5t-12.5 -99.5zM118 0l481 720h63l-481 -720h-63zM442 197q0 108 36.5 161.5t105.5 53.5q6 0 14 -1t42 -5t62.5 -43t28.5 -131v-66q0 -87 -30 -127.5t-64.5 -46t-52.5 -5.5q-13 0 -47 4.5t-63.5 44.5t-29.5 127zM534 197v-40q0 -48 2 -63.5t11 -39.5t39 -24
q9 0 25 8.5t22.5 47.5t6.5 160q0 44 -2 59t-11 39t-39 24q-9 0 -24 -8t-22.5 -41t-7.5 -122zM784 197l2 43q0 84 38 128t103 44h12q9 -2 43 -6t62.5 -43t28.5 -131v-66q0 -87 -30 -127.5t-64.5 -46t-52.5 -5.5q-13 0 -47 4.5t-63.5 44.5t-29.5 127zM876 197v-40q0 -47 2 -63
t11 -40t39 -24q9 0 25 8.5t22 54t6 196.5q0 26 -10 49q-11 30 -41 30q-9 0 -24 -8t-22.5 -41t-7.5 -122z" />
    <glyph glyph-name="Acircumflex" unicode="&#xc2;" horiz-adv-x="651" 
d="M-16 0q11 17 23.5 39.5t24.5 51.5l14 31l6 14l5 14l38 95l44 112l38 100l48 135q7 21 13 42t6 37q0 12 -5 32l-3 9l-3 8h122l120 -286l33 -78q77 -184 106.5 -244.5t65.5 -111.5h-154q-5 37 -26 90l-14 36l-4 9l-3 6l-3 8l-71 167h-226l-62 -166l-2 -7l-3 -8l-5 -15
l-9 -29q-5 -16 -8 -31.5t-3 -27.5q0 -13 1 -20q3 -8 3 -12h-107zM193 361h194l-103 246zM210 744l75 142h81l74 -140l-114 69z" />
    <glyph glyph-name="Ecircumflex" unicode="&#xca;" horiz-adv-x="516" 
d="M55 0q7 30 9 40t2 38l2 37v9v498v22q0 24 -5 52l-3 15l-2 9h399l11 -70q-26 10 -56 16.5t-65 6.5l-35 2h-130v-273h94h26q30 0 51.5 5t50.5 17v-89q-28 11 -56.5 16t-71.5 5h-93v-304h160q56 0 87.5 4t69.5 16l20 7l-40 -79h-425zM143 744l75 142h81l74 -140l-114 69z
" />
    <glyph glyph-name="Aacute" unicode="&#xc1;" horiz-adv-x="651" 
d="M-16 0q11 17 23.5 39.5t24.5 51.5l14 31l6 14l5 14l38 95l44 112l38 100l48 135q7 21 13 42t6 37q0 12 -5 32l-3 9l-3 8h122l120 -286l33 -78q77 -184 106.5 -244.5t65.5 -111.5h-154q-5 37 -26 90l-14 36l-4 9l-3 6l-3 8l-71 167h-226l-62 -166l-2 -7l-3 -8l-5 -15
l-9 -29q-5 -16 -8 -31.5t-3 -27.5q0 -13 1 -20q3 -8 3 -12h-107zM193 361h194l-103 246zM290 747l40 142h114z" />
    <glyph glyph-name="Edieresis" unicode="&#xcb;" horiz-adv-x="516" 
d="M55 0q7 30 9 40t2 38l2 37v9v498v22q0 24 -5 52l-3 15l-2 9h399l11 -70q-26 10 -56 16.5t-65 6.5l-35 2h-130v-273h94h26q30 0 51.5 5t50.5 17v-89q-28 11 -56.5 16t-71.5 5h-93v-304h160q56 0 87.5 4t69.5 16l20 7l-40 -79h-425zM103 822q0 24 17.5 41.5t42.5 17.5
q26 0 43.5 -17.5t17.5 -41.5t-18 -41t-43 -17q-26 0 -43 17t-17 41zM292 823q0 25 17.5 41.5t43.5 16.5q24 0 42 -17.5t18 -42.5q0 -23 -18 -40t-42 -17q-26 0 -43.5 16.5t-17.5 42.5z" />
    <glyph glyph-name="Egrave" unicode="&#xc8;" horiz-adv-x="516" 
d="M55 0q7 30 9 40t2 38l2 37v9v498v22q0 24 -5 52l-3 15l-2 9h399l11 -70q-26 10 -56 16.5t-65 6.5l-35 2h-130v-273h94h26q30 0 51.5 5t50.5 17v-89q-28 11 -56.5 16t-71.5 5h-93v-304h160q56 0 87.5 4t69.5 16l20 7l-40 -79h-425zM143 888h114l39 -143z" />
    <glyph glyph-name="Iacute" unicode="&#xcd;" horiz-adv-x="249" 
d="M53 0q7 21 10.5 41.5t3.5 48.5l1 45v8v425v14v18l-1 27q0 51 -14 93h143q-8 -24 -11 -42t-3 -51v-35l-1 -10v-14v-419v-14l1 -45q0 -30 3 -48t11 -42h-143zM89 747l40 142h114z" />
    <glyph glyph-name="Icircumflex" unicode="&#xce;" horiz-adv-x="249" 
d="M53 0q7 21 10.5 41.5t3.5 48.5l1 45v8v425v14v18l-1 27q0 51 -14 93h143q-8 -24 -11 -42t-3 -51v-35l-1 -10v-14v-419v-14l1 -45q0 -30 3 -48t11 -42h-143zM9 744l75 142h81l74 -140l-114 69z" />
    <glyph glyph-name="Idieresis" unicode="&#xcf;" horiz-adv-x="249" 
d="M53 0q7 21 10.5 41.5t3.5 48.5l1 45v8v425v14v18l-1 27q0 51 -14 93h143q-8 -24 -11 -42t-3 -51v-35l-1 -10v-14v-419v-14l1 -45q0 -30 3 -48t11 -42h-143zM-31 822q0 24 17.5 41.5t42.5 17.5q26 0 43.5 -17.5t17.5 -41.5t-18 -41t-43 -17q-26 0 -43 17t-17 41zM158 823
q0 25 17.5 41.5t43.5 16.5q24 0 42 -17.5t18 -42.5q0 -23 -18 -40t-42 -17q-26 0 -43.5 16.5t-17.5 42.5z" />
    <glyph glyph-name="Igrave" unicode="&#xcc;" horiz-adv-x="249" 
d="M53 0q7 21 10.5 41.5t3.5 48.5l1 45v8v425v14v18l-1 27q0 51 -14 93h143q-8 -24 -11 -42t-3 -51v-35l-1 -10v-14v-419v-14l1 -45q0 -30 3 -48t11 -42h-143zM9 888h114l39 -143z" />
    <glyph glyph-name="Oacute" unicode="&#xd3;" horiz-adv-x="778" 
d="M43 361q0 65 18 122t54 106.5t93.5 85t97 42.5t63 8t25.5 1q146 0 243.5 -98.5t97.5 -254.5q0 -142 -75 -246t-157.5 -120.5t-123.5 -16.5q-187 0 -261.5 127t-74.5 244zM173 363q0 -156 62 -241t154 -85t153 85t61 244l-4 62q-9 72 -31.5 123.5t-66.5 91t-114 39.5
q-49 0 -91.5 -23.5t-67 -62.5t-36 -77.5t-15 -75.5t-4 -48t-0.5 -18v-14zM354 747l40 142h114z" />
    <glyph glyph-name="Ocircumflex" unicode="&#xd4;" horiz-adv-x="778" 
d="M43 361q0 65 18 122t54 106.5t93.5 85t97 42.5t63 8t25.5 1q146 0 243.5 -98.5t97.5 -254.5q0 -142 -75 -246t-157.5 -120.5t-123.5 -16.5q-187 0 -261.5 127t-74.5 244zM173 363q0 -156 62 -241t154 -85t153 85t61 244l-4 62q-9 72 -31.5 123.5t-66.5 91t-114 39.5
q-49 0 -91.5 -23.5t-67 -62.5t-36 -77.5t-15 -75.5t-4 -48t-0.5 -18v-14zM274 744l75 142h81l74 -140l-114 69z" />
    <glyph glyph-name="Ograve" unicode="&#xd2;" horiz-adv-x="778" 
d="M43 361q0 65 18 122t54 106.5t93.5 85t97 42.5t63 8t25.5 1q146 0 243.5 -98.5t97.5 -254.5q0 -142 -75 -246t-157.5 -120.5t-123.5 -16.5q-187 0 -261.5 127t-74.5 244zM173 363q0 -156 62 -241t154 -85t153 85t61 244l-4 62q-9 72 -31.5 123.5t-66.5 91t-114 39.5
q-49 0 -91.5 -23.5t-67 -62.5t-36 -77.5t-15 -75.5t-4 -48t-0.5 -18v-14zM274 888h114l39 -143z" />
    <glyph glyph-name="Uacute" unicode="&#xda;" horiz-adv-x="689" 
d="M56 720h134q-5 -27 -7 -45t-2 -48v-13v-32v-14v-365q0 -70 29.5 -104.5t67 -39t54.5 -4.5q16 0 62 8t79.5 50.5t33.5 124.5v329v15v26v18q1 12 -2 45l-9 49h135q-9 -39 -9 -93v-45v-14v-419v-14v-45q0 -28 2.5 -47t9.5 -43h-127v83q-74 -80 -193 -95l-45 -2
q-109 0 -155 47t-46 153v382v14l-1 45q0 30 -2 48.5t-9 44.5zM309 747l40 142h114z" />
    <glyph glyph-name="Ucircumflex" unicode="&#xdb;" horiz-adv-x="689" 
d="M56 720h134q-5 -27 -7 -45t-2 -48v-13v-32v-14v-365q0 -70 29.5 -104.5t67 -39t54.5 -4.5q16 0 62 8t79.5 50.5t33.5 124.5v329v15v26v18q1 12 -2 45l-9 49h135q-9 -39 -9 -93v-45v-14v-419v-14v-45q0 -28 2.5 -47t9.5 -43h-127v83q-74 -80 -193 -95l-45 -2
q-109 0 -155 47t-46 153v382v14l-1 45q0 30 -2 48.5t-9 44.5zM229 744l75 142h81l74 -140l-114 69z" />
    <glyph glyph-name="Ugrave" unicode="&#xd9;" horiz-adv-x="689" 
d="M56 720h134q-5 -27 -7 -45t-2 -48v-13v-32v-14v-365q0 -70 29.5 -104.5t67 -39t54.5 -4.5q16 0 62 8t79.5 50.5t33.5 124.5v329v15v26v18q1 12 -2 45l-9 49h135q-9 -39 -9 -93v-45v-14v-419v-14v-45q0 -28 2.5 -47t9.5 -43h-127v83q-74 -80 -193 -95l-45 -2
q-109 0 -155 47t-46 153v382v14l-1 45q0 30 -2 48.5t-9 44.5zM229 888h114l39 -143z" />
    <glyph glyph-name="dotlessi" unicode="&#x131;" horiz-adv-x="190" 
d="M38 0l5 34l1 11l1 24l1 24v9v13v275v13l-1 33l-1 32l-5 36h108v-389l-1 -13l1 -33l1 -26l1 -9l6 -34h-117z" />
    <glyph glyph-name="circumflex" unicode="&#x2c6;" horiz-adv-x="278" 
d="M24 528l75 142h81l74 -140l-114 69z" />
    <glyph glyph-name="tilde" unicode="&#x2dc;" horiz-adv-x="311" 
d="M25 569q15 90 74 90q20 0 41 -10l3 -1l36 -20l13 -7q15 -7 31 -7q27 0 55 32l6 8l3 4l-1 -9l-2 -8l-4 -17q-25 -74 -76 -74q-18 0 -32.5 6.5t-21 10t-30.5 19.5l-11 6q-17 6 -28 6q-21 0 -45 -25l-11 -12v8z" />
    <glyph glyph-name="macron" unicode="&#xaf;" horiz-adv-x="278" 
d="M23 554v62h230v-62h-230z" />
    <glyph glyph-name="macron" unicode="&#x2c9;" horiz-adv-x="278" 
d="M23 554v62h230v-62h-230z" />
    <glyph glyph-name="breve" unicode="&#x2d8;" horiz-adv-x="278" 
d="M25 694q12 -39 44.5 -62.5t71.5 -23.5q38 0 70.5 24.5t43.5 62.5q3 -14 3 -28q0 -39 -24.5 -71.5t-48 -38.5t-30 -7t-16.5 -1q-49 0 -83 35t-34 84q0 12 3 26z" />
    <glyph glyph-name="ring" unicode="&#x2da;" horiz-adv-x="229" 
d="M39 617q0 30 22.5 51.5t53.5 21.5t47 -15.5t22 -30t6 -28.5q0 -31 -22 -52.5t-54 -21.5q-31 0 -53 22t-22 53zM71 617q0 -17 12.5 -29.5t30.5 -12.5q16 0 29 11.5t13 29.5q0 16 -12 28t-29 12q-18 0 -31 -11t-13 -28z" />
    <glyph glyph-name="cedilla" unicode="&#xb8;" horiz-adv-x="169" 
d="M38 -168l11 2l18 2l6 1q14 4 24 11.5t10 22.5q0 14 -10 21l-20 10l-12 4l36 94h32l-9 -23l-4 -12l-4 -11q2 -7 4 -11l21 -13l13 -9q16 -15 16 -35q0 -30 -27.5 -46t-54.5 -16q-13 0 -30 3l-11 3z" />
    <glyph glyph-name="caron" unicode="&#x2c7;" horiz-adv-x="278" 
d="M24 680l114 -69l116 71l-75 -142h-81z" />
    </font>
</defs>
</svg>
