<svg width="60" height="60" viewBox="0 0 60 60" fill="none" xmlns="http://www.w3.org/2000/svg">
<rect width="60" height="60" fill="#00266B"/>
<path fill-rule="evenodd" clip-rule="evenodd" d="M21.6774 47.1788C21.6774 47.1788 27.2623 38.8349 27.7657 38.0134C28.3808 37.0035 28.4085 35.3997 27.8546 34.5382C27.574 34.0879 19.2464 20.9194 19.2464 20.9194C18.4983 19.4958 18.6843 18.5242 19.1836 17.8292C20.0043 16.6177 21.4523 14.4706 21.4523 14.4706C21.4523 14.4706 31.5615 30.332 31.9825 31.0368C33.0683 32.8462 32.7673 34.6206 31.8724 36.1379C31.1235 37.4187 24.5743 47.1788 24.5743 47.1788H21.6774Z" fill="#AF8F62"/>
<path fill-rule="evenodd" clip-rule="evenodd" d="M19.8794 48.0798C19.8794 48.0798 26.342 38.6167 26.8225 37.8327C27.3871 36.8774 27.3251 35.5281 26.8225 34.7131C26.5542 34.2832 17.5788 20.1578 17.5788 20.1578C17.5788 20.1578 15.9864 22.5603 15.4839 23.3018C14.9814 24.041 14.6852 24.9604 15.5459 26.441C15.5459 26.441 21.9719 36.5862 22.2427 37.0153C22.7681 37.8425 22.7436 39.3631 22.1587 40.32C21.6782 41.0942 15.0507 50.7581 15.0507 50.7581H34.1769C36.1217 50.7581 37.188 50.0043 38.1261 48.6533C38.9403 47.5031 42.0876 42.9306 42.5681 42.2151C43.0462 41.4972 44.0039 41.0183 44.4322 41.0183H45.9283L43.0111 36.5805H38.3578C37.4694 36.5805 36.3942 37.3693 35.8305 38.2055C35.39 38.8655 32.2068 43.633 31.6333 44.399C31.3086 44.8322 31.0296 44.9276 30.7718 44.9292C30.629 44.9301 30.2187 44.9284 30.1657 44.9284C30.3557 44.5466 35.7008 36.7705 36.7523 35.0582C38.0209 32.951 38.3097 30.1667 36.7988 27.4966C36.2457 26.5267 25.1371 9.00024 25.1371 9.00024C25.1371 9.00024 23.6589 11.1303 23.043 12.0423C22.5437 12.7863 22.3887 13.7596 23.1083 15.1839C23.1083 15.1839 32.4335 30.0133 32.8798 30.6945C33.9632 32.3857 33.8261 34.6438 32.8798 36.1848C32.1032 37.4525 25.6633 47.1792 25.6633 47.1792H30.7669C32.6147 47.1792 33.0682 46.4931 33.5781 45.9237C34.0888 45.3551 36.8641 41.144 37.1798 40.7002C37.4988 40.2621 38.3097 39.0189 39.3735 39.0189H42.7264V39.1159C42.0126 39.2587 41.3093 39.6894 40.7987 40.3918C40.288 41.0828 36.9188 46.0705 36.5133 46.6522C36.0034 47.3848 35.4193 48.0798 33.9534 48.0798H19.8794Z" fill="#AF8F62"/>
</svg>
